solid OpenSCAD_Model
  facet normal -1 0 0
    outer loop
      vertex 24.055 1.95 10.5
      vertex 24.055 2 11.9
      vertex 24.055 2 10.5
    endloop
  endfacet
  facet normal -1 -0 0
    outer loop
      vertex 24.055 2 11.9
      vertex 24.055 1.95 10.5
      vertex 24.055 1.95 11.9
    endloop
  endfacet
  facet normal 0 0 -1
    outer loop
      vertex 19.655 1.95 11.9
      vertex 24.055 2 11.9
      vertex 24.055 1.95 11.9
    endloop
  endfacet
  facet normal -0 0 -1
    outer loop
      vertex 24.055 2 11.9
      vertex 19.655 1.95 11.9
      vertex 19.655 2 11.9
    endloop
  endfacet
  facet normal -0 0 1
    outer loop
      vertex 19.655 2 10.5
      vertex 24.055 1.95 10.5
      vertex 24.055 2 10.5
    endloop
  endfacet
  facet normal 0 0 1
    outer loop
      vertex 24.055 1.95 10.5
      vertex 19.655 2 10.5
      vertex 19.655 1.95 10.5
    endloop
  endfacet
  facet normal 1 -0 0
    outer loop
      vertex 19.655 1.95 11.9
      vertex 19.655 2 10.5
      vertex 19.655 2 11.9
    endloop
  endfacet
  facet normal 1 0 0
    outer loop
      vertex 19.655 2 10.5
      vertex 19.655 1.95 11.9
      vertex 19.655 1.95 10.5
    endloop
  endfacet
  facet normal 0 1 -0
    outer loop
      vertex 24.055 1.95 10.5
      vertex 19.655 1.95 11.9
      vertex 24.055 1.95 11.9
    endloop
  endfacet
  facet normal 0 1 0
    outer loop
      vertex 19.655 1.95 11.9
      vertex 24.055 1.95 10.5
      vertex 19.655 1.95 10.5
    endloop
  endfacet
  facet normal -1 0 0
    outer loop
      vertex 24.055 32.5 10.5
      vertex 24.055 32.55 11.9
      vertex 24.055 32.55 10.5
    endloop
  endfacet
  facet normal -1 -0 0
    outer loop
      vertex 24.055 32.55 11.9
      vertex 24.055 32.5 10.5
      vertex 24.055 32.5 11.9
    endloop
  endfacet
  facet normal 0 0 -1
    outer loop
      vertex 19.655 32.5 11.9
      vertex 24.055 32.55 11.9
      vertex 24.055 32.5 11.9
    endloop
  endfacet
  facet normal -0 0 -1
    outer loop
      vertex 24.055 32.55 11.9
      vertex 19.655 32.5 11.9
      vertex 19.655 32.55 11.9
    endloop
  endfacet
  facet normal -0 0 1
    outer loop
      vertex 19.655 32.55 10.5
      vertex 24.055 32.5 10.5
      vertex 24.055 32.55 10.5
    endloop
  endfacet
  facet normal 0 0 1
    outer loop
      vertex 24.055 32.5 10.5
      vertex 19.655 32.55 10.5
      vertex 19.655 32.5 10.5
    endloop
  endfacet
  facet normal 1 -0 0
    outer loop
      vertex 19.655 32.5 11.9
      vertex 19.655 32.55 10.5
      vertex 19.655 32.55 11.9
    endloop
  endfacet
  facet normal 1 0 0
    outer loop
      vertex 19.655 32.55 10.5
      vertex 19.655 32.5 11.9
      vertex 19.655 32.5 10.5
    endloop
  endfacet
  facet normal 0 -1 0
    outer loop
      vertex 19.655 32.55 10.5
      vertex 24.055 32.55 11.9
      vertex 19.655 32.55 11.9
    endloop
  endfacet
  facet normal 0 -1 -0
    outer loop
      vertex 24.055 32.55 11.9
      vertex 19.655 32.55 10.5
      vertex 24.055 32.55 10.5
    endloop
  endfacet
  facet normal -1 0 0
    outer loop
      vertex 50.845 1.95 10.5
      vertex 50.845 2 11.9
      vertex 50.845 2 10.5
    endloop
  endfacet
  facet normal -1 -0 0
    outer loop
      vertex 50.845 2 11.9
      vertex 50.845 1.95 10.5
      vertex 50.845 1.95 11.9
    endloop
  endfacet
  facet normal 0 0 -1
    outer loop
      vertex 46.445 1.95 11.9
      vertex 50.845 2 11.9
      vertex 50.845 1.95 11.9
    endloop
  endfacet
  facet normal -0 0 -1
    outer loop
      vertex 50.845 2 11.9
      vertex 46.445 1.95 11.9
      vertex 46.445 2 11.9
    endloop
  endfacet
  facet normal -0 0 1
    outer loop
      vertex 46.445 2 10.5
      vertex 50.845 1.95 10.5
      vertex 50.845 2 10.5
    endloop
  endfacet
  facet normal 0 0 1
    outer loop
      vertex 50.845 1.95 10.5
      vertex 46.445 2 10.5
      vertex 46.445 1.95 10.5
    endloop
  endfacet
  facet normal 1 -0 0
    outer loop
      vertex 46.445 1.95 11.9
      vertex 46.445 2 10.5
      vertex 46.445 2 11.9
    endloop
  endfacet
  facet normal 1 0 0
    outer loop
      vertex 46.445 2 10.5
      vertex 46.445 1.95 11.9
      vertex 46.445 1.95 10.5
    endloop
  endfacet
  facet normal 0 1 -0
    outer loop
      vertex 50.845 1.95 10.5
      vertex 46.445 1.95 11.9
      vertex 50.845 1.95 11.9
    endloop
  endfacet
  facet normal 0 1 0
    outer loop
      vertex 46.445 1.95 11.9
      vertex 50.845 1.95 10.5
      vertex 46.445 1.95 10.5
    endloop
  endfacet
  facet normal -1 0 0
    outer loop
      vertex 50.845 32.5 10.5
      vertex 50.845 32.55 11.9
      vertex 50.845 32.55 10.5
    endloop
  endfacet
  facet normal -1 -0 0
    outer loop
      vertex 50.845 32.55 11.9
      vertex 50.845 32.5 10.5
      vertex 50.845 32.5 11.9
    endloop
  endfacet
  facet normal 0 0 -1
    outer loop
      vertex 46.445 32.5 11.9
      vertex 50.845 32.55 11.9
      vertex 50.845 32.5 11.9
    endloop
  endfacet
  facet normal -0 0 -1
    outer loop
      vertex 50.845 32.55 11.9
      vertex 46.445 32.5 11.9
      vertex 46.445 32.55 11.9
    endloop
  endfacet
  facet normal -0 0 1
    outer loop
      vertex 46.445 32.55 10.5
      vertex 50.845 32.5 10.5
      vertex 50.845 32.55 10.5
    endloop
  endfacet
  facet normal 0 0 1
    outer loop
      vertex 50.845 32.5 10.5
      vertex 46.445 32.55 10.5
      vertex 46.445 32.5 10.5
    endloop
  endfacet
  facet normal 1 -0 0
    outer loop
      vertex 46.445 32.5 11.9
      vertex 46.445 32.55 10.5
      vertex 46.445 32.55 11.9
    endloop
  endfacet
  facet normal 1 0 0
    outer loop
      vertex 46.445 32.55 10.5
      vertex 46.445 32.5 11.9
      vertex 46.445 32.5 10.5
    endloop
  endfacet
  facet normal 0 -1 0
    outer loop
      vertex 46.445 32.55 10.5
      vertex 50.845 32.55 11.9
      vertex 46.445 32.55 11.9
    endloop
  endfacet
  facet normal 0 -1 -0
    outer loop
      vertex 50.845 32.55 11.9
      vertex 46.445 32.55 10.5
      vertex 50.845 32.55 10.5
    endloop
  endfacet
  facet normal -0.997859 0.0653957 0
    outer loop
      vertex 0 31.7 0
      vertex 0.0239534 32.0655 14
      vertex 0.0239534 32.0655 0
    endloop
  endfacet
  facet normal -0.997859 0.0653957 0
    outer loop
      vertex 0.0239534 32.0655 14
      vertex 0 31.7 0
      vertex 0 31.7 14
    endloop
  endfacet
  facet normal -0.442303 0.896866 0
    outer loop
      vertex 1.72849 34.2869 0
      vertex 1.4 34.1249 14
      vertex 1.72849 34.2869 14
    endloop
  endfacet
  facet normal -0.442303 0.896866 0
    outer loop
      vertex 1.4 34.1249 14
      vertex 1.72849 34.2869 0
      vertex 1.4 34.1249 0
    endloop
  endfacet
  facet normal 0.980813 -0.19495 0
    outer loop
      vertex 70.4046 2.07531 14
      vertex 70.476 2.43453 0
      vertex 70.476 2.43453 14
    endloop
  endfacet
  facet normal 0.980813 -0.19495 0
    outer loop
      vertex 70.476 2.43453 0
      vertex 70.4046 2.07531 14
      vertex 70.4046 2.07531 0
    endloop
  endfacet
  facet normal 0.442292 0.896871 -0
    outer loop
      vertex 69.1 34.1249 0
      vertex 68.7715 34.2869 14
      vertex 69.1 34.1249 14
    endloop
  endfacet
  facet normal 0.442292 0.896871 0
    outer loop
      vertex 68.7715 34.2869 14
      vertex 69.1 34.1249 0
      vertex 68.7715 34.2869 0
    endloop
  endfacet
  facet normal -0.946925 0.321456 0
    outer loop
      vertex 0.0954075 32.4247 0
      vertex 0.213137 32.7715 14
      vertex 0.213137 32.7715 0
    endloop
  endfacet
  facet normal -0.946925 0.321456 0
    outer loop
      vertex 0.213137 32.7715 14
      vertex 0.0954075 32.4247 0
      vertex 0.0954075 32.4247 14
    endloop
  endfacet
  facet normal -1 0 0
    outer loop
      vertex 0 31.7 0
      vertex 0 30.05 3.8
      vertex 0 31.7 14
    endloop
  endfacet
  facet normal -1 0 0
    outer loop
      vertex 0 31.7 0
      vertex 0 4.45 3.8
      vertex 0 30.05 3.8
    endloop
  endfacet
  facet normal -1 0 0
    outer loop
      vertex 0 2.8 14
      vertex 0 4.45 3.8
      vertex 0 2.8 0
    endloop
  endfacet
  facet normal -1 0 0
    outer loop
      vertex 0 2.8 0
      vertex 0 4.45 3.8
      vertex 0 31.7 0
    endloop
  endfacet
  facet normal -1 0 0
    outer loop
      vertex 0 30.05 11.3
      vertex 0 31.7 14
      vertex 0 30.05 3.8
    endloop
  endfacet
  facet normal -1 0 0
    outer loop
      vertex 0 4.45 11.3
      vertex 0 31.7 14
      vertex 0 30.05 11.3
    endloop
  endfacet
  facet normal -1 0 0
    outer loop
      vertex 0 4.45 11.3
      vertex 0 2.8 14
      vertex 0 31.7 14
    endloop
  endfacet
  facet normal -1 0 0
    outer loop
      vertex 0 4.45 3.8
      vertex 0 2.8 14
      vertex 0 4.45 11.3
    endloop
  endfacet
  facet normal -0.659358 0.751829 0
    outer loop
      vertex 1.09547 33.9214 0
      vertex 0.820101 33.6799 14
      vertex 1.09547 33.9214 14
    endloop
  endfacet
  facet normal -0.659358 0.751829 0
    outer loop
      vertex 0.820101 33.6799 14
      vertex 1.09547 33.9214 0
      vertex 0.820101 33.6799 0
    endloop
  endfacet
  facet normal 0.83142 0.555645 0
    outer loop
      vertex 70.1249 33.1 14
      vertex 69.9214 33.4045 0
      vertex 69.9214 33.4045 14
    endloop
  endfacet
  facet normal 0.83142 0.555645 0
    outer loop
      vertex 69.9214 33.4045 0
      vertex 70.1249 33.1 14
      vertex 70.1249 33.1 0
    endloop
  endfacet
  facet normal 0 1 -0
    outer loop
      vertex 67.7 34.5 0
      vertex 2.8 34.5 14
      vertex 67.7 34.5 14
    endloop
  endfacet
  facet normal 0 1 0
    outer loop
      vertex 2.8 34.5 14
      vertex 67.7 34.5 0
      vertex 2.8 34.5 0
    endloop
  endfacet
  facet normal 0.555609 -0.831444 0
    outer loop
      vertex 69.1 0.375129 0
      vertex 69.4045 0.57861 14
      vertex 69.1 0.375129 14
    endloop
  endfacet
  facet normal 0.555609 -0.831444 0
    outer loop
      vertex 69.4045 0.57861 14
      vertex 69.1 0.375129 0
      vertex 69.4045 0.57861 0
    endloop
  endfacet
  facet normal -0.980783 0.195103 0
    outer loop
      vertex 0.0239534 32.0655 0
      vertex 0.0954075 32.4247 14
      vertex 0.0954075 32.4247 0
    endloop
  endfacet
  facet normal -0.980783 0.195103 0
    outer loop
      vertex 0.0954075 32.4247 14
      vertex 0.0239534 32.0655 0
      vertex 0.0239534 32.0655 14
    endloop
  endfacet
  facet normal 1 -0 0
    outer loop
      vertex 70.5 2.8 14
      vertex 70.5 31.7 0
      vertex 70.5 31.7 14
    endloop
  endfacet
  facet normal 1 0 0
    outer loop
      vertex 70.5 31.7 0
      vertex 70.5 2.8 14
      vertex 70.5 2.8 0
    endloop
  endfacet
  facet normal 0.896866 -0.442303 0
    outer loop
      vertex 70.1249 1.4 14
      vertex 70.2869 1.72849 0
      vertex 70.2869 1.72849 14
    endloop
  endfacet
  facet normal 0.896866 -0.442303 0
    outer loop
      vertex 70.2869 1.72849 0
      vertex 70.1249 1.4 14
      vertex 70.1249 1.4 0
    endloop
  endfacet
  facet normal -0.555571 -0.831469 0
    outer loop
      vertex 1.09547 0.57861 0
      vertex 1.4 0.375129 14
      vertex 1.09547 0.57861 14
    endloop
  endfacet
  facet normal -0.555571 -0.831469 -0
    outer loop
      vertex 1.4 0.375129 14
      vertex 1.09547 0.57861 0
      vertex 1.4 0.375129 0
    endloop
  endfacet
  facet normal -0.831444 0.555609 0
    outer loop
      vertex 0.375129 33.1 0
      vertex 0.57861 33.4045 14
      vertex 0.57861 33.4045 0
    endloop
  endfacet
  facet normal -0.831444 0.555609 0
    outer loop
      vertex 0.57861 33.4045 14
      vertex 0.375129 33.1 0
      vertex 0.375129 33.1 14
    endloop
  endfacet
  facet normal 0.321384 0.946949 -0
    outer loop
      vertex 68.7715 34.2869 0
      vertex 68.4247 34.4046 14
      vertex 68.7715 34.2869 14
    endloop
  endfacet
  facet normal 0.321384 0.946949 0
    outer loop
      vertex 68.4247 34.4046 14
      vertex 68.7715 34.2869 0
      vertex 68.4247 34.4046 0
    endloop
  endfacet
  facet normal -0.896874 -0.442286 0
    outer loop
      vertex 0.375129 1.4 0
      vertex 0.213137 1.72849 14
      vertex 0.213137 1.72849 0
    endloop
  endfacet
  facet normal -0.896874 -0.442286 0
    outer loop
      vertex 0.213137 1.72849 14
      vertex 0.375129 1.4 0
      vertex 0.375129 1.4 14
    endloop
  endfacet
  facet normal -0.751878 0.659302 0
    outer loop
      vertex 0.57861 33.4045 0
      vertex 0.820101 33.6799 14
      vertex 0.820101 33.6799 0
    endloop
  endfacet
  facet normal -0.751878 0.659302 0
    outer loop
      vertex 0.820101 33.6799 14
      vertex 0.57861 33.4045 0
      vertex 0.57861 33.4045 14
    endloop
  endfacet
  facet normal 0.751829 -0.659358 0
    outer loop
      vertex 69.6799 0.820101 14
      vertex 69.9214 1.09547 0
      vertex 69.9214 1.09547 14
    endloop
  endfacet
  facet normal 0.751829 -0.659358 0
    outer loop
      vertex 69.9214 1.09547 0
      vertex 69.6799 0.820101 14
      vertex 69.6799 0.820101 0
    endloop
  endfacet
  facet normal -0.0655277 0.997851 0
    outer loop
      vertex 2.8 34.5 0
      vertex 2.43453 34.476 14
      vertex 2.8 34.5 14
    endloop
  endfacet
  facet normal -0.0655277 0.997851 0
    outer loop
      vertex 2.43453 34.476 14
      vertex 2.8 34.5 0
      vertex 2.43453 34.476 0
    endloop
  endfacet
  facet normal 0 -1 0
    outer loop
      vertex 2.8 0 0
      vertex 67.7 0 14
      vertex 2.8 0 14
    endloop
  endfacet
  facet normal 0 -1 -0
    outer loop
      vertex 67.7 0 14
      vertex 2.8 0 0
      vertex 67.7 0 0
    endloop
  endfacet
  facet normal 0.751866 0.659316 0
    outer loop
      vertex 69.9214 33.4045 14
      vertex 69.6799 33.6799 0
      vertex 69.6799 33.6799 14
    endloop
  endfacet
  facet normal 0.751866 0.659316 0
    outer loop
      vertex 69.6799 33.6799 0
      vertex 69.9214 33.4045 14
      vertex 69.9214 33.4045 0
    endloop
  endfacet
  facet normal 0.659316 0.751866 -0
    outer loop
      vertex 69.6799 33.6799 0
      vertex 69.4045 33.9214 14
      vertex 69.6799 33.6799 14
    endloop
  endfacet
  facet normal 0.659316 0.751866 0
    outer loop
      vertex 69.4045 33.9214 14
      vertex 69.6799 33.6799 0
      vertex 69.4045 33.9214 0
    endloop
  endfacet
  facet normal -0.065401 -0.997859 0
    outer loop
      vertex 2.43453 0.0239534 0
      vertex 2.8 0 14
      vertex 2.43453 0.0239534 14
    endloop
  endfacet
  facet normal -0.065401 -0.997859 -0
    outer loop
      vertex 2.8 0 14
      vertex 2.43453 0.0239534 0
      vertex 2.8 0 0
    endloop
  endfacet
  facet normal 0.0653957 -0.997859 0
    outer loop
      vertex 67.7 0 0
      vertex 68.0655 0.0239534 14
      vertex 67.7 0 14
    endloop
  endfacet
  facet normal 0.0653957 -0.997859 0
    outer loop
      vertex 68.0655 0.0239534 14
      vertex 67.7 0 0
      vertex 68.0655 0.0239534 0
    endloop
  endfacet
  facet normal 0.980811 0.194961 0
    outer loop
      vertex 70.476 32.0655 14
      vertex 70.4046 32.4247 0
      vertex 70.4046 32.4247 14
    endloop
  endfacet
  facet normal 0.980811 0.194961 0
    outer loop
      vertex 70.4046 32.4247 0
      vertex 70.476 32.0655 14
      vertex 70.476 32.0655 0
    endloop
  endfacet
  facet normal -0.980785 -0.195092 0
    outer loop
      vertex 0.0954075 2.07531 0
      vertex 0.0239534 2.43453 14
      vertex 0.0239534 2.43453 0
    endloop
  endfacet
  facet normal -0.980785 -0.195092 0
    outer loop
      vertex 0.0239534 2.43453 14
      vertex 0.0954075 2.07531 0
      vertex 0.0954075 2.07531 14
    endloop
  endfacet
  facet normal -0.195092 -0.980785 0
    outer loop
      vertex 2.07531 0.0954075 0
      vertex 2.43453 0.0239534 14
      vertex 2.07531 0.0954075 14
    endloop
  endfacet
  facet normal -0.195092 -0.980785 -0
    outer loop
      vertex 2.43453 0.0239534 14
      vertex 2.07531 0.0954075 0
      vertex 2.43453 0.0239534 0
    endloop
  endfacet
  facet normal 0.997851 -0.0655277 0
    outer loop
      vertex 70.476 2.43453 14
      vertex 70.5 2.8 0
      vertex 70.5 2.8 14
    endloop
  endfacet
  facet normal 0.997851 -0.0655277 0
    outer loop
      vertex 70.5 2.8 0
      vertex 70.476 2.43453 14
      vertex 70.476 2.43453 0
    endloop
  endfacet
  facet normal -0.94693 -0.321439 0
    outer loop
      vertex 0.213137 1.72849 0
      vertex 0.0954075 2.07531 14
      vertex 0.0954075 2.07531 0
    endloop
  endfacet
  facet normal -0.94693 -0.321439 0
    outer loop
      vertex 0.0954075 2.07531 14
      vertex 0.213137 1.72849 0
      vertex 0.213137 1.72849 14
    endloop
  endfacet
  facet normal 0.896871 0.442292 0
    outer loop
      vertex 70.2869 32.7715 14
      vertex 70.1249 33.1 0
      vertex 70.1249 33.1 14
    endloop
  endfacet
  facet normal 0.896871 0.442292 0
    outer loop
      vertex 70.1249 33.1 0
      vertex 70.2869 32.7715 14
      vertex 70.2869 32.7715 0
    endloop
  endfacet
  facet normal 0.946955 -0.321367 0
    outer loop
      vertex 70.2869 1.72849 14
      vertex 70.4046 2.07531 0
      vertex 70.4046 2.07531 14
    endloop
  endfacet
  facet normal 0.946955 -0.321367 0
    outer loop
      vertex 70.4046 2.07531 0
      vertex 70.2869 1.72849 14
      vertex 70.2869 1.72849 0
    endloop
  endfacet
  facet normal 0.555645 0.83142 -0
    outer loop
      vertex 69.4045 33.9214 0
      vertex 69.1 34.1249 14
      vertex 69.4045 33.9214 14
    endloop
  endfacet
  facet normal 0.555645 0.83142 0
    outer loop
      vertex 69.1 34.1249 14
      vertex 69.4045 33.9214 0
      vertex 69.1 34.1249 0
    endloop
  endfacet
  facet normal -0.831469 -0.555571 0
    outer loop
      vertex 0.57861 1.09547 0
      vertex 0.375129 1.4 14
      vertex 0.375129 1.4 0
    endloop
  endfacet
  facet normal -0.831469 -0.555571 0
    outer loop
      vertex 0.375129 1.4 14
      vertex 0.57861 1.09547 0
      vertex 0.57861 1.09547 14
    endloop
  endfacet
  facet normal -0.997859 -0.065401 0
    outer loop
      vertex 0.0239534 2.43453 0
      vertex 0 2.8 14
      vertex 0 2.8 0
    endloop
  endfacet
  facet normal -0.997859 -0.065401 0
    outer loop
      vertex 0 2.8 14
      vertex 0.0239534 2.43453 0
      vertex 0.0239534 2.43453 14
    endloop
  endfacet
  facet normal -0.751841 -0.659344 0
    outer loop
      vertex 0.820101 0.820101 0
      vertex 0.57861 1.09547 14
      vertex 0.57861 1.09547 0
    endloop
  endfacet
  facet normal -0.751841 -0.659344 0
    outer loop
      vertex 0.57861 1.09547 14
      vertex 0.820101 0.820101 0
      vertex 0.820101 0.820101 14
    endloop
  endfacet
  facet normal 0.0655224 0.997851 -0
    outer loop
      vertex 68.0655 34.476 0
      vertex 67.7 34.5 14
      vertex 68.0655 34.476 14
    endloop
  endfacet
  facet normal 0.0655224 0.997851 0
    outer loop
      vertex 67.7 34.5 14
      vertex 68.0655 34.476 0
      vertex 67.7 34.5 0
    endloop
  endfacet
  facet normal 0.946949 0.321384 0
    outer loop
      vertex 70.4046 32.4247 14
      vertex 70.2869 32.7715 0
      vertex 70.2869 32.7715 14
    endloop
  endfacet
  facet normal 0.946949 0.321384 0
    outer loop
      vertex 70.2869 32.7715 0
      vertex 70.4046 32.4247 14
      vertex 70.4046 32.4247 0
    endloop
  endfacet
  facet normal -0.321439 -0.94693 0
    outer loop
      vertex 1.72849 0.213137 0
      vertex 2.07531 0.0954075 14
      vertex 1.72849 0.213137 14
    endloop
  endfacet
  facet normal -0.321439 -0.94693 -0
    outer loop
      vertex 2.07531 0.0954075 14
      vertex 1.72849 0.213137 0
      vertex 2.07531 0.0954075 0
    endloop
  endfacet
  facet normal -0.89688 0.442275 0
    outer loop
      vertex 0.213137 32.7715 0
      vertex 0.375129 33.1 14
      vertex 0.375129 33.1 0
    endloop
  endfacet
  facet normal -0.89688 0.442275 0
    outer loop
      vertex 0.375129 33.1 14
      vertex 0.213137 32.7715 0
      vertex 0.213137 32.7715 14
    endloop
  endfacet
  facet normal 0.321456 -0.946925 0
    outer loop
      vertex 68.4247 0.0954075 0
      vertex 68.7715 0.213137 14
      vertex 68.4247 0.0954075 14
    endloop
  endfacet
  facet normal 0.321456 -0.946925 0
    outer loop
      vertex 68.7715 0.213137 14
      vertex 68.4247 0.0954075 0
      vertex 68.7715 0.213137 0
    endloop
  endfacet
  facet normal 0 0 1
    outer loop
      vertex 68.5 31.7 14
      vertex 70.5 31.7 14
      vertex 70.476 32.0655 14
    endloop
  endfacet
  facet normal 0 0 1
    outer loop
      vertex 70.5 31.7 14
      vertex 68.5 31.7 14
      vertex 70.5 2.8 14
    endloop
  endfacet
  facet normal 0 0 1
    outer loop
      vertex 68.4932 31.8044 14
      vertex 70.476 32.0655 14
      vertex 70.4046 32.4247 14
    endloop
  endfacet
  facet normal 0 0 1
    outer loop
      vertex 68.5 2.8 14
      vertex 70.5 2.8 14
      vertex 68.5 31.7 14
    endloop
  endfacet
  facet normal 0 0 1
    outer loop
      vertex 68.4727 31.9071 14
      vertex 70.4046 32.4247 14
      vertex 70.2869 32.7715 14
    endloop
  endfacet
  facet normal 0 0 1
    outer loop
      vertex 70.5 2.8 14
      vertex 68.5 2.8 14
      vertex 70.476 2.43453 14
    endloop
  endfacet
  facet normal 0 0 1
    outer loop
      vertex 68.4391 32.0061 14
      vertex 70.2869 32.7715 14
      vertex 70.1249 33.1 14
    endloop
  endfacet
  facet normal -0 0 1
    outer loop
      vertex 68.4932 2.69558 14
      vertex 70.476 2.43453 14
      vertex 68.5 2.8 14
    endloop
  endfacet
  facet normal 0 0 1
    outer loop
      vertex 68.3928 32.1 14
      vertex 70.1249 33.1 14
      vertex 69.9214 33.4045 14
    endloop
  endfacet
  facet normal 0 0 1
    outer loop
      vertex 70.476 2.43453 14
      vertex 68.4932 2.69558 14
      vertex 70.4046 2.07531 14
    endloop
  endfacet
  facet normal 0 0 1
    outer loop
      vertex 68.3347 32.187 14
      vertex 69.9214 33.4045 14
      vertex 69.6799 33.6799 14
    endloop
  endfacet
  facet normal -0 0 1
    outer loop
      vertex 68.4727 2.59294 14
      vertex 70.4046 2.07531 14
      vertex 68.4932 2.69558 14
    endloop
  endfacet
  facet normal 0 0 1
    outer loop
      vertex 68.2657 32.2657 14
      vertex 69.6799 33.6799 14
      vertex 69.4045 33.9214 14
    endloop
  endfacet
  facet normal 0 0 1
    outer loop
      vertex 70.4046 2.07531 14
      vertex 68.4727 2.59294 14
      vertex 70.2869 1.72849 14
    endloop
  endfacet
  facet normal 0 0 1
    outer loop
      vertex 68.187 32.3347 14
      vertex 69.4045 33.9214 14
      vertex 69.1 34.1249 14
    endloop
  endfacet
  facet normal -0 0 1
    outer loop
      vertex 68.4391 2.49385 14
      vertex 70.2869 1.72849 14
      vertex 68.4727 2.59294 14
    endloop
  endfacet
  facet normal 0 0 1
    outer loop
      vertex 68.1 32.3928 14
      vertex 69.1 34.1249 14
      vertex 68.7715 34.2869 14
    endloop
  endfacet
  facet normal 0 0 1
    outer loop
      vertex 70.2869 1.72849 14
      vertex 68.4391 2.49385 14
      vertex 70.1249 1.4 14
    endloop
  endfacet
  facet normal -0 0 1
    outer loop
      vertex 68.3928 2.4 14
      vertex 70.1249 1.4 14
      vertex 68.4391 2.49385 14
    endloop
  endfacet
  facet normal 0 0 1
    outer loop
      vertex 70.476 32.0655 14
      vertex 68.4932 31.8044 14
      vertex 68.5 31.7 14
    endloop
  endfacet
  facet normal 0 0 1
    outer loop
      vertex 70.4046 32.4247 14
      vertex 68.4727 31.9071 14
      vertex 68.4932 31.8044 14
    endloop
  endfacet
  facet normal 0 0 1
    outer loop
      vertex 70.2869 32.7715 14
      vertex 68.4391 32.0061 14
      vertex 68.4727 31.9071 14
    endloop
  endfacet
  facet normal 0 0 1
    outer loop
      vertex 68.0061 32.4391 14
      vertex 68.7715 34.2869 14
      vertex 68.4247 34.4046 14
    endloop
  endfacet
  facet normal 0 0 1
    outer loop
      vertex 70.1249 33.1 14
      vertex 68.3928 32.1 14
      vertex 68.4391 32.0061 14
    endloop
  endfacet
  facet normal 0 0 1
    outer loop
      vertex 69.9214 33.4045 14
      vertex 68.3347 32.187 14
      vertex 68.3928 32.1 14
    endloop
  endfacet
  facet normal 0 0 1
    outer loop
      vertex 69.6799 33.6799 14
      vertex 68.2657 32.2657 14
      vertex 68.3347 32.187 14
    endloop
  endfacet
  facet normal 0 0 1
    outer loop
      vertex 69.4045 33.9214 14
      vertex 68.187 32.3347 14
      vertex 68.2657 32.2657 14
    endloop
  endfacet
  facet normal 0 0 1
    outer loop
      vertex 69.1 34.1249 14
      vertex 68.1 32.3928 14
      vertex 68.187 32.3347 14
    endloop
  endfacet
  facet normal 0 0 1
    outer loop
      vertex 67.9071 32.4727 14
      vertex 68.4247 34.4046 14
      vertex 68.0655 34.476 14
    endloop
  endfacet
  facet normal 0 0 1
    outer loop
      vertex 68.7715 34.2869 14
      vertex 68.0061 32.4391 14
      vertex 68.1 32.3928 14
    endloop
  endfacet
  facet normal 0 0 1
    outer loop
      vertex 68.4247 34.4046 14
      vertex 67.9071 32.4727 14
      vertex 68.0061 32.4391 14
    endloop
  endfacet
  facet normal 0 0 1
    outer loop
      vertex 68.0655 34.476 14
      vertex 67.8044 32.4932 14
      vertex 67.9071 32.4727 14
    endloop
  endfacet
  facet normal 0 0 1
    outer loop
      vertex 67.7 34.5 14
      vertex 67.8044 32.4932 14
      vertex 68.0655 34.476 14
    endloop
  endfacet
  facet normal 0 0 1
    outer loop
      vertex 67.7 34.5 14
      vertex 67.7 32.5 14
      vertex 67.8044 32.4932 14
    endloop
  endfacet
  facet normal -0 0 1
    outer loop
      vertex 2.8 34.5 14
      vertex 67.7 32.5 14
      vertex 67.7 34.5 14
    endloop
  endfacet
  facet normal 0 0 1
    outer loop
      vertex 2.8 34.5 14
      vertex 2.8 32.5 14
      vertex 67.7 32.5 14
    endloop
  endfacet
  facet normal 0 0 1
    outer loop
      vertex 2.8 34.5 14
      vertex 2.69558 32.4932 14
      vertex 2.8 32.5 14
    endloop
  endfacet
  facet normal -0 0 1
    outer loop
      vertex 2.43453 34.476 14
      vertex 2.69558 32.4932 14
      vertex 2.8 34.5 14
    endloop
  endfacet
  facet normal 0 0 1
    outer loop
      vertex 2.69558 32.4932 14
      vertex 2.43453 34.476 14
      vertex 2.59294 32.4727 14
    endloop
  endfacet
  facet normal -0 0 1
    outer loop
      vertex 2.07531 34.4046 14
      vertex 2.59294 32.4727 14
      vertex 2.43453 34.476 14
    endloop
  endfacet
  facet normal 0 0 1
    outer loop
      vertex 2.59294 32.4727 14
      vertex 2.07531 34.4046 14
      vertex 2.49385 32.4391 14
    endloop
  endfacet
  facet normal -0 0 1
    outer loop
      vertex 1.72849 34.2869 14
      vertex 2.49385 32.4391 14
      vertex 2.07531 34.4046 14
    endloop
  endfacet
  facet normal 0 0 1
    outer loop
      vertex 2.49385 32.4391 14
      vertex 1.72849 34.2869 14
      vertex 2.4 32.3928 14
    endloop
  endfacet
  facet normal -0 0 1
    outer loop
      vertex 1.4 34.1249 14
      vertex 2.4 32.3928 14
      vertex 1.72849 34.2869 14
    endloop
  endfacet
  facet normal 0 0 1
    outer loop
      vertex 2.4 32.3928 14
      vertex 1.4 34.1249 14
      vertex 2.31299 32.3347 14
    endloop
  endfacet
  facet normal -0 0 1
    outer loop
      vertex 1.09547 33.9214 14
      vertex 2.31299 32.3347 14
      vertex 1.4 34.1249 14
    endloop
  endfacet
  facet normal 0 0 1
    outer loop
      vertex 2.31299 32.3347 14
      vertex 1.09547 33.9214 14
      vertex 2.23431 32.2657 14
    endloop
  endfacet
  facet normal -0 0 1
    outer loop
      vertex 0.820101 33.6799 14
      vertex 2.23431 32.2657 14
      vertex 1.09547 33.9214 14
    endloop
  endfacet
  facet normal 0 0 1
    outer loop
      vertex 2.23431 32.2657 14
      vertex 0.820101 33.6799 14
      vertex 2.16532 32.187 14
    endloop
  endfacet
  facet normal -0 0 1
    outer loop
      vertex 0.57861 33.4045 14
      vertex 2.16532 32.187 14
      vertex 0.820101 33.6799 14
    endloop
  endfacet
  facet normal -0 0 1
    outer loop
      vertex 0.375129 33.1 14
      vertex 2.10718 32.1 14
      vertex 0.57861 33.4045 14
    endloop
  endfacet
  facet normal 0 0 1
    outer loop
      vertex 2.16532 32.187 14
      vertex 0.57861 33.4045 14
      vertex 2.10718 32.1 14
    endloop
  endfacet
  facet normal 0 0 1
    outer loop
      vertex 70.1249 1.4 14
      vertex 68.3928 2.4 14
      vertex 69.9214 1.09547 14
    endloop
  endfacet
  facet normal -0 0 1
    outer loop
      vertex 68.3347 2.31299 14
      vertex 69.9214 1.09547 14
      vertex 68.3928 2.4 14
    endloop
  endfacet
  facet normal 0 0 1
    outer loop
      vertex 69.9214 1.09547 14
      vertex 68.3347 2.31299 14
      vertex 69.6799 0.820101 14
    endloop
  endfacet
  facet normal -0 0 1
    outer loop
      vertex 68.2657 2.23431 14
      vertex 69.6799 0.820101 14
      vertex 68.3347 2.31299 14
    endloop
  endfacet
  facet normal 0 0 1
    outer loop
      vertex 69.6799 0.820101 14
      vertex 68.2657 2.23431 14
      vertex 69.4045 0.57861 14
    endloop
  endfacet
  facet normal -0 0 1
    outer loop
      vertex 68.187 2.16532 14
      vertex 69.4045 0.57861 14
      vertex 68.2657 2.23431 14
    endloop
  endfacet
  facet normal 0 0 1
    outer loop
      vertex 69.4045 0.57861 14
      vertex 68.187 2.16532 14
      vertex 69.1 0.375129 14
    endloop
  endfacet
  facet normal -0 0 1
    outer loop
      vertex 68.1 2.10718 14
      vertex 69.1 0.375129 14
      vertex 68.187 2.16532 14
    endloop
  endfacet
  facet normal 0 0 1
    outer loop
      vertex 69.1 0.375129 14
      vertex 68.1 2.10718 14
      vertex 68.7715 0.213137 14
    endloop
  endfacet
  facet normal -0 0 1
    outer loop
      vertex 68.0061 2.0609 14
      vertex 68.7715 0.213137 14
      vertex 68.1 2.10718 14
    endloop
  endfacet
  facet normal 0 0 1
    outer loop
      vertex 68.7715 0.213137 14
      vertex 68.0061 2.0609 14
      vertex 68.4247 0.0954075 14
    endloop
  endfacet
  facet normal -0 0 1
    outer loop
      vertex 67.9071 2.02726 14
      vertex 68.4247 0.0954075 14
      vertex 68.0061 2.0609 14
    endloop
  endfacet
  facet normal 0 0 1
    outer loop
      vertex 68.4247 0.0954075 14
      vertex 67.9071 2.02726 14
      vertex 68.0655 0.0239534 14
    endloop
  endfacet
  facet normal -0 0 1
    outer loop
      vertex 67.8044 2.00684 14
      vertex 68.0655 0.0239534 14
      vertex 67.9071 2.02726 14
    endloop
  endfacet
  facet normal -0 0 1
    outer loop
      vertex 67.7 2 14
      vertex 68.0655 0.0239534 14
      vertex 67.8044 2.00684 14
    endloop
  endfacet
  facet normal 0 0 1
    outer loop
      vertex 67.7 2 14
      vertex 67.7 0 14
      vertex 68.0655 0.0239534 14
    endloop
  endfacet
  facet normal -0 0 1
    outer loop
      vertex 2.8 2 14
      vertex 67.7 0 14
      vertex 67.7 2 14
    endloop
  endfacet
  facet normal 0 0 1
    outer loop
      vertex 2.8 2 14
      vertex 2.8 0 14
      vertex 67.7 0 14
    endloop
  endfacet
  facet normal 0 0 1
    outer loop
      vertex 2.69558 2.00684 14
      vertex 2.8 0 14
      vertex 2.8 2 14
    endloop
  endfacet
  facet normal 0 0 1
    outer loop
      vertex 2.43453 0.0239534 14
      vertex 2.69558 2.00684 14
      vertex 2.59294 2.02726 14
    endloop
  endfacet
  facet normal 0 0 1
    outer loop
      vertex 2.07531 0.0954075 14
      vertex 2.59294 2.02726 14
      vertex 2.49385 2.0609 14
    endloop
  endfacet
  facet normal 0 0 1
    outer loop
      vertex 2.69558 2.00684 14
      vertex 2.43453 0.0239534 14
      vertex 2.8 0 14
    endloop
  endfacet
  facet normal 0 0 1
    outer loop
      vertex 1.72849 0.213137 14
      vertex 2.49385 2.0609 14
      vertex 2.4 2.10718 14
    endloop
  endfacet
  facet normal 0 0 1
    outer loop
      vertex 1.4 0.375129 14
      vertex 2.4 2.10718 14
      vertex 2.31299 2.16532 14
    endloop
  endfacet
  facet normal 0 0 1
    outer loop
      vertex 1.09547 0.57861 14
      vertex 2.31299 2.16532 14
      vertex 2.23431 2.23431 14
    endloop
  endfacet
  facet normal 0 0 1
    outer loop
      vertex 0.820101 0.820101 14
      vertex 2.23431 2.23431 14
      vertex 2.16532 2.31299 14
    endloop
  endfacet
  facet normal 0 0 1
    outer loop
      vertex 0.57861 1.09547 14
      vertex 2.16532 2.31299 14
      vertex 2.10718 2.4 14
    endloop
  endfacet
  facet normal 0 0 1
    outer loop
      vertex 2.59294 2.02726 14
      vertex 2.07531 0.0954075 14
      vertex 2.43453 0.0239534 14
    endloop
  endfacet
  facet normal 0 0 1
    outer loop
      vertex 0.375129 1.4 14
      vertex 2.10718 2.4 14
      vertex 2.0609 2.49385 14
    endloop
  endfacet
  facet normal 0 0 1
    outer loop
      vertex 0.213137 1.72849 14
      vertex 2.0609 2.49385 14
      vertex 2.02726 2.59294 14
    endloop
  endfacet
  facet normal 0 0 1
    outer loop
      vertex 0.0954075 2.07531 14
      vertex 2.02726 2.59294 14
      vertex 2.00684 2.69558 14
    endloop
  endfacet
  facet normal 0 0 1
    outer loop
      vertex 0.0239534 2.43453 14
      vertex 2.00684 2.69558 14
      vertex 2 2.8 14
    endloop
  endfacet
  facet normal 0 0 1
    outer loop
      vertex 2.49385 2.0609 14
      vertex 1.72849 0.213137 14
      vertex 2.07531 0.0954075 14
    endloop
  endfacet
  facet normal 0 0 1
    outer loop
      vertex 2 31.7 14
      vertex 0 31.7 14
      vertex 2 2.8 14
    endloop
  endfacet
  facet normal 0 0 1
    outer loop
      vertex 2.10718 32.1 14
      vertex 0.375129 33.1 14
      vertex 2.0609 32.0061 14
    endloop
  endfacet
  facet normal 0 0 1
    outer loop
      vertex 0 2.8 14
      vertex 2 2.8 14
      vertex 0 31.7 14
    endloop
  endfacet
  facet normal -0 0 1
    outer loop
      vertex 0.213137 32.7715 14
      vertex 2.0609 32.0061 14
      vertex 0.375129 33.1 14
    endloop
  endfacet
  facet normal 0 -0 1
    outer loop
      vertex 0.0239534 2.43453 14
      vertex 2 2.8 14
      vertex 0 2.8 14
    endloop
  endfacet
  facet normal 0 0 1
    outer loop
      vertex 2.0609 32.0061 14
      vertex 0.213137 32.7715 14
      vertex 2.02726 31.9071 14
    endloop
  endfacet
  facet normal 0 0 1
    outer loop
      vertex 2.4 2.10718 14
      vertex 1.4 0.375129 14
      vertex 1.72849 0.213137 14
    endloop
  endfacet
  facet normal -0 0 1
    outer loop
      vertex 0.0954075 32.4247 14
      vertex 2.02726 31.9071 14
      vertex 0.213137 32.7715 14
    endloop
  endfacet
  facet normal 0 0 1
    outer loop
      vertex 2.31299 2.16532 14
      vertex 1.09547 0.57861 14
      vertex 1.4 0.375129 14
    endloop
  endfacet
  facet normal 0 0 1
    outer loop
      vertex 2.02726 31.9071 14
      vertex 0.0954075 32.4247 14
      vertex 2.00684 31.8044 14
    endloop
  endfacet
  facet normal 0 0 1
    outer loop
      vertex 2.23431 2.23431 14
      vertex 0.820101 0.820101 14
      vertex 1.09547 0.57861 14
    endloop
  endfacet
  facet normal -0 0 1
    outer loop
      vertex 0.0239534 32.0655 14
      vertex 2.00684 31.8044 14
      vertex 0.0954075 32.4247 14
    endloop
  endfacet
  facet normal 0 0 1
    outer loop
      vertex 2.16532 2.31299 14
      vertex 0.57861 1.09547 14
      vertex 0.820101 0.820101 14
    endloop
  endfacet
  facet normal 0 0 1
    outer loop
      vertex 2.00684 31.8044 14
      vertex 0.0239534 32.0655 14
      vertex 2 31.7 14
    endloop
  endfacet
  facet normal 0 0 1
    outer loop
      vertex 2.10718 2.4 14
      vertex 0.375129 1.4 14
      vertex 0.57861 1.09547 14
    endloop
  endfacet
  facet normal 0 0 1
    outer loop
      vertex 2 31.7 14
      vertex 0.0239534 32.0655 14
      vertex 0 31.7 14
    endloop
  endfacet
  facet normal 0 0 1
    outer loop
      vertex 2.0609 2.49385 14
      vertex 0.213137 1.72849 14
      vertex 0.375129 1.4 14
    endloop
  endfacet
  facet normal 0 0 1
    outer loop
      vertex 2.02726 2.59294 14
      vertex 0.0954075 2.07531 14
      vertex 0.213137 1.72849 14
    endloop
  endfacet
  facet normal 0 0 1
    outer loop
      vertex 2.00684 2.69558 14
      vertex 0.0239534 2.43453 14
      vertex 0.0954075 2.07531 14
    endloop
  endfacet
  facet normal -0.555607 0.831445 0
    outer loop
      vertex 1.4 34.1249 0
      vertex 1.09547 33.9214 14
      vertex 1.4 34.1249 14
    endloop
  endfacet
  facet normal -0.555607 0.831445 0
    outer loop
      vertex 1.09547 33.9214 14
      vertex 1.4 34.1249 0
      vertex 1.09547 33.9214 0
    endloop
  endfacet
  facet normal -0.659344 -0.751841 0
    outer loop
      vertex 0.820101 0.820101 0
      vertex 1.09547 0.57861 14
      vertex 0.820101 0.820101 14
    endloop
  endfacet
  facet normal -0.659344 -0.751841 -0
    outer loop
      vertex 1.09547 0.57861 14
      vertex 0.820101 0.820101 0
      vertex 1.09547 0.57861 0
    endloop
  endfacet
  facet normal -0.321367 0.946955 0
    outer loop
      vertex 2.07531 34.4046 0
      vertex 1.72849 34.2869 14
      vertex 2.07531 34.4046 14
    endloop
  endfacet
  facet normal -0.321367 0.946955 0
    outer loop
      vertex 1.72849 34.2869 14
      vertex 2.07531 34.4046 0
      vertex 1.72849 34.2869 0
    endloop
  endfacet
  facet normal -0.442286 -0.896874 0
    outer loop
      vertex 1.4 0.375129 0
      vertex 1.72849 0.213137 14
      vertex 1.4 0.375129 14
    endloop
  endfacet
  facet normal -0.442286 -0.896874 -0
    outer loop
      vertex 1.72849 0.213137 14
      vertex 1.4 0.375129 0
      vertex 1.72849 0.213137 0
    endloop
  endfacet
  facet normal -0.19495 0.980813 0
    outer loop
      vertex 2.43453 34.476 0
      vertex 2.07531 34.4046 14
      vertex 2.43453 34.476 14
    endloop
  endfacet
  facet normal -0.19495 0.980813 0
    outer loop
      vertex 2.07531 34.4046 14
      vertex 2.43453 34.476 0
      vertex 2.07531 34.4046 0
    endloop
  endfacet
  facet normal 0.659302 -0.751878 0
    outer loop
      vertex 69.4045 0.57861 0
      vertex 69.6799 0.820101 14
      vertex 69.4045 0.57861 14
    endloop
  endfacet
  facet normal 0.659302 -0.751878 0
    outer loop
      vertex 69.6799 0.820101 14
      vertex 69.4045 0.57861 0
      vertex 69.6799 0.820101 0
    endloop
  endfacet
  facet normal 0 0 -1
    outer loop
      vertex 67.7 0 0
      vertex 70.5 2.8 0
      vertex 70.476 2.43453 0
    endloop
  endfacet
  facet normal -0 0 -1
    outer loop
      vertex 70.5 2.8 0
      vertex 67.7 0 0
      vertex 70.5 31.7 0
    endloop
  endfacet
  facet normal 0 0 -1
    outer loop
      vertex 67.7 0 0
      vertex 70.476 2.43453 0
      vertex 70.4046 2.07531 0
    endloop
  endfacet
  facet normal 0 0 -1
    outer loop
      vertex 67.7 34.5 0
      vertex 70.5 31.7 0
      vertex 67.7 0 0
    endloop
  endfacet
  facet normal 0 0 -1
    outer loop
      vertex 67.7 0 0
      vertex 70.4046 2.07531 0
      vertex 70.2869 1.72849 0
    endloop
  endfacet
  facet normal 0 0 -1
    outer loop
      vertex 70.5 31.7 0
      vertex 67.7 34.5 0
      vertex 70.476 32.0655 0
    endloop
  endfacet
  facet normal 0 0 -1
    outer loop
      vertex 67.7 0 0
      vertex 70.2869 1.72849 0
      vertex 70.1249 1.4 0
    endloop
  endfacet
  facet normal 0 0 -1
    outer loop
      vertex 70.476 32.0655 0
      vertex 67.7 34.5 0
      vertex 70.4046 32.4247 0
    endloop
  endfacet
  facet normal 0 0 -1
    outer loop
      vertex 67.7 0 0
      vertex 70.1249 1.4 0
      vertex 69.9214 1.09547 0
    endloop
  endfacet
  facet normal 0 0 -1
    outer loop
      vertex 70.4046 32.4247 0
      vertex 67.7 34.5 0
      vertex 70.2869 32.7715 0
    endloop
  endfacet
  facet normal 0 0 -1
    outer loop
      vertex 67.7 0 0
      vertex 69.9214 1.09547 0
      vertex 69.6799 0.820101 0
    endloop
  endfacet
  facet normal 0 0 -1
    outer loop
      vertex 70.2869 32.7715 0
      vertex 67.7 34.5 0
      vertex 70.1249 33.1 0
    endloop
  endfacet
  facet normal 0 0 -1
    outer loop
      vertex 67.7 0 0
      vertex 69.6799 0.820101 0
      vertex 69.4045 0.57861 0
    endloop
  endfacet
  facet normal 0 0 -1
    outer loop
      vertex 70.1249 33.1 0
      vertex 67.7 34.5 0
      vertex 69.9214 33.4045 0
    endloop
  endfacet
  facet normal 0 0 -1
    outer loop
      vertex 67.7 0 0
      vertex 69.4045 0.57861 0
      vertex 69.1 0.375129 0
    endloop
  endfacet
  facet normal 0 0 -1
    outer loop
      vertex 69.9214 33.4045 0
      vertex 67.7 34.5 0
      vertex 69.6799 33.6799 0
    endloop
  endfacet
  facet normal 0 0 -1
    outer loop
      vertex 67.7 0 0
      vertex 69.1 0.375129 0
      vertex 68.7715 0.213137 0
    endloop
  endfacet
  facet normal 0 0 -1
    outer loop
      vertex 69.6799 33.6799 0
      vertex 67.7 34.5 0
      vertex 69.4045 33.9214 0
    endloop
  endfacet
  facet normal 0 0 -1
    outer loop
      vertex 67.7 0 0
      vertex 68.7715 0.213137 0
      vertex 68.4247 0.0954075 0
    endloop
  endfacet
  facet normal 0 0 -1
    outer loop
      vertex 69.4045 33.9214 0
      vertex 67.7 34.5 0
      vertex 69.1 34.1249 0
    endloop
  endfacet
  facet normal 0 0 -1
    outer loop
      vertex 67.7 0 0
      vertex 68.4247 0.0954075 0
      vertex 68.0655 0.0239534 0
    endloop
  endfacet
  facet normal 0 0 -1
    outer loop
      vertex 69.1 34.1249 0
      vertex 67.7 34.5 0
      vertex 68.7715 34.2869 0
    endloop
  endfacet
  facet normal 0 0 -1
    outer loop
      vertex 68.7715 34.2869 0
      vertex 67.7 34.5 0
      vertex 68.4247 34.4046 0
    endloop
  endfacet
  facet normal 0 0 -1
    outer loop
      vertex 68.4247 34.4046 0
      vertex 67.7 34.5 0
      vertex 68.0655 34.476 0
    endloop
  endfacet
  facet normal 0 0 -1
    outer loop
      vertex 2.8 0 0
      vertex 67.7 34.5 0
      vertex 67.7 0 0
    endloop
  endfacet
  facet normal 0 0 -1
    outer loop
      vertex 2.8 0 0
      vertex 2.8 34.5 0
      vertex 67.7 34.5 0
    endloop
  endfacet
  facet normal 0 0 -1
    outer loop
      vertex 0 2.8 0
      vertex 2.8 0 0
      vertex 2.43453 0.0239534 0
    endloop
  endfacet
  facet normal 0 0 -1
    outer loop
      vertex 2.8 0 0
      vertex 0 2.8 0
      vertex 2.8 34.5 0
    endloop
  endfacet
  facet normal 0 0 -1
    outer loop
      vertex 0 2.8 0
      vertex 2.43453 0.0239534 0
      vertex 2.07531 0.0954075 0
    endloop
  endfacet
  facet normal 0 0 -1
    outer loop
      vertex 0 31.7 0
      vertex 2.8 34.5 0
      vertex 0 2.8 0
    endloop
  endfacet
  facet normal 0 0 -1
    outer loop
      vertex 0 2.8 0
      vertex 2.07531 0.0954075 0
      vertex 1.72849 0.213137 0
    endloop
  endfacet
  facet normal 0 0 -1
    outer loop
      vertex 2.8 34.5 0
      vertex 0 31.7 0
      vertex 2.43453 34.476 0
    endloop
  endfacet
  facet normal 0 0 -1
    outer loop
      vertex 0 2.8 0
      vertex 1.72849 0.213137 0
      vertex 1.4 0.375129 0
    endloop
  endfacet
  facet normal 0 0 -1
    outer loop
      vertex 2.43453 34.476 0
      vertex 0 31.7 0
      vertex 2.07531 34.4046 0
    endloop
  endfacet
  facet normal 0 0 -1
    outer loop
      vertex 0 2.8 0
      vertex 1.4 0.375129 0
      vertex 1.09547 0.57861 0
    endloop
  endfacet
  facet normal 0 0 -1
    outer loop
      vertex 2.07531 34.4046 0
      vertex 0 31.7 0
      vertex 1.72849 34.2869 0
    endloop
  endfacet
  facet normal 0 0 -1
    outer loop
      vertex 0 2.8 0
      vertex 1.09547 0.57861 0
      vertex 0.820101 0.820101 0
    endloop
  endfacet
  facet normal 0 0 -1
    outer loop
      vertex 1.72849 34.2869 0
      vertex 0 31.7 0
      vertex 1.4 34.1249 0
    endloop
  endfacet
  facet normal 0 0 -1
    outer loop
      vertex 0 2.8 0
      vertex 0.820101 0.820101 0
      vertex 0.57861 1.09547 0
    endloop
  endfacet
  facet normal 0 0 -1
    outer loop
      vertex 1.4 34.1249 0
      vertex 0 31.7 0
      vertex 1.09547 33.9214 0
    endloop
  endfacet
  facet normal 0 0 -1
    outer loop
      vertex 0 2.8 0
      vertex 0.57861 1.09547 0
      vertex 0.375129 1.4 0
    endloop
  endfacet
  facet normal 0 0 -1
    outer loop
      vertex 1.09547 33.9214 0
      vertex 0 31.7 0
      vertex 0.820101 33.6799 0
    endloop
  endfacet
  facet normal 0 0 -1
    outer loop
      vertex 0 2.8 0
      vertex 0.375129 1.4 0
      vertex 0.213137 1.72849 0
    endloop
  endfacet
  facet normal 0 0 -1
    outer loop
      vertex 0.820101 33.6799 0
      vertex 0 31.7 0
      vertex 0.57861 33.4045 0
    endloop
  endfacet
  facet normal 0 0 -1
    outer loop
      vertex 0 2.8 0
      vertex 0.213137 1.72849 0
      vertex 0.0954075 2.07531 0
    endloop
  endfacet
  facet normal 0 0 -1
    outer loop
      vertex 0.57861 33.4045 0
      vertex 0 31.7 0
      vertex 0.375129 33.1 0
    endloop
  endfacet
  facet normal 0 0 -1
    outer loop
      vertex 0 2.8 0
      vertex 0.0954075 2.07531 0
      vertex 0.0239534 2.43453 0
    endloop
  endfacet
  facet normal 0 0 -1
    outer loop
      vertex 0.375129 33.1 0
      vertex 0 31.7 0
      vertex 0.213137 32.7715 0
    endloop
  endfacet
  facet normal 0 0 -1
    outer loop
      vertex 0.213137 32.7715 0
      vertex 0 31.7 0
      vertex 0.0954075 32.4247 0
    endloop
  endfacet
  facet normal 0 0 -1
    outer loop
      vertex 0.0954075 32.4247 0
      vertex 0 31.7 0
      vertex 0.0239534 32.0655 0
    endloop
  endfacet
  facet normal 0.442275 -0.89688 0
    outer loop
      vertex 68.7715 0.213137 0
      vertex 69.1 0.375129 14
      vertex 68.7715 0.213137 14
    endloop
  endfacet
  facet normal 0.442275 -0.89688 0
    outer loop
      vertex 69.1 0.375129 14
      vertex 68.7715 0.213137 0
      vertex 69.1 0.375129 0
    endloop
  endfacet
  facet normal 0.997851 0.0655224 0
    outer loop
      vertex 70.5 31.7 14
      vertex 70.476 32.0655 0
      vertex 70.476 32.0655 14
    endloop
  endfacet
  facet normal 0.997851 0.0655224 0
    outer loop
      vertex 70.476 32.0655 0
      vertex 70.5 31.7 14
      vertex 70.5 31.7 0
    endloop
  endfacet
  facet normal 0.194961 0.980811 -0
    outer loop
      vertex 68.4247 34.4046 0
      vertex 68.0655 34.476 14
      vertex 68.4247 34.4046 14
    endloop
  endfacet
  facet normal 0.194961 0.980811 0
    outer loop
      vertex 68.0655 34.476 14
      vertex 68.4247 34.4046 0
      vertex 68.0655 34.476 0
    endloop
  endfacet
  facet normal 0.831445 -0.555607 0
    outer loop
      vertex 69.9214 1.09547 14
      vertex 70.1249 1.4 0
      vertex 70.1249 1.4 14
    endloop
  endfacet
  facet normal 0.831445 -0.555607 0
    outer loop
      vertex 70.1249 1.4 0
      vertex 69.9214 1.09547 14
      vertex 69.9214 1.09547 0
    endloop
  endfacet
  facet normal 0.195103 -0.980783 0
    outer loop
      vertex 68.0655 0.0239534 0
      vertex 68.4247 0.0954075 14
      vertex 68.0655 0.0239534 14
    endloop
  endfacet
  facet normal 0.195103 -0.980783 0
    outer loop
      vertex 68.4247 0.0954075 14
      vertex 68.0655 0.0239534 0
      vertex 68.4247 0.0954075 0
    endloop
  endfacet
  facet normal -0.659194 0.751973 0
    outer loop
      vertex 68.2657 2.23431 2
      vertex 68.187 2.16532 14
      vertex 68.2657 2.23431 14
    endloop
  endfacet
  facet normal -0.659194 0.751973 0
    outer loop
      vertex 68.187 2.16532 14
      vertex 68.2657 2.23431 2
      vertex 68.187 2.16532 2
    endloop
  endfacet
  facet normal -0.831609 -0.555362 0
    outer loop
      vertex 68.3928 32.1 2
      vertex 68.3347 32.187 14
      vertex 68.3347 32.187 2
    endloop
  endfacet
  facet normal -0.831609 -0.555362 0
    outer loop
      vertex 68.3347 32.187 14
      vertex 68.3928 32.1 2
      vertex 68.3928 32.1 14
    endloop
  endfacet
  facet normal 0 -1 0
    outer loop
      vertex 24.055 32.5 10.5
      vertex 46.445 32.5 11.9
      vertex 24.055 32.5 11.9
    endloop
  endfacet
  facet normal 0 -1 -0
    outer loop
      vertex 46.445 32.5 11.9
      vertex 24.055 32.5 10.5
      vertex 46.445 32.5 10.5
    endloop
  endfacet
  facet normal 0 -1 0
    outer loop
      vertex 24.055 32.5 11.9
      vertex 2.8 32.5 14
      vertex 19.655 32.5 11.9
    endloop
  endfacet
  facet normal 0 -1 0
    outer loop
      vertex 2.8 32.5 14
      vertex 19.655 32.5 10.5
      vertex 19.655 32.5 11.9
    endloop
  endfacet
  facet normal 0 -1 0
    outer loop
      vertex 2.8 32.5 2
      vertex 24.055 32.5 10.5
      vertex 19.655 32.5 10.5
    endloop
  endfacet
  facet normal 0 -1 -0
    outer loop
      vertex 24.055 32.5 10.5
      vertex 2.8 32.5 2
      vertex 46.445 32.5 10.5
    endloop
  endfacet
  facet normal 0 -1 0
    outer loop
      vertex 67.7 32.5 2
      vertex 46.445 32.5 10.5
      vertex 2.8 32.5 2
    endloop
  endfacet
  facet normal 0 -1 0
    outer loop
      vertex 2.8 32.5 2
      vertex 19.655 32.5 10.5
      vertex 2.8 32.5 14
    endloop
  endfacet
  facet normal 0 -1 0
    outer loop
      vertex 2.8 32.5 14
      vertex 24.055 32.5 11.9
      vertex 67.7 32.5 14
    endloop
  endfacet
  facet normal 0 -1 0
    outer loop
      vertex 46.445 32.5 11.9
      vertex 67.7 32.5 14
      vertex 24.055 32.5 11.9
    endloop
  endfacet
  facet normal 0 -1 0
    outer loop
      vertex 50.845 32.5 11.9
      vertex 67.7 32.5 14
      vertex 46.445 32.5 11.9
    endloop
  endfacet
  facet normal 0 -1 0
    outer loop
      vertex 50.845 32.5 10.5
      vertex 67.7 32.5 14
      vertex 50.845 32.5 11.9
    endloop
  endfacet
  facet normal 0 -1 0
    outer loop
      vertex 50.845 32.5 10.5
      vertex 67.7 32.5 2
      vertex 67.7 32.5 14
    endloop
  endfacet
  facet normal 0 -1 0
    outer loop
      vertex 46.445 32.5 10.5
      vertex 67.7 32.5 2
      vertex 50.845 32.5 10.5
    endloop
  endfacet
  facet normal -0.997886 -0.0649964 0
    outer loop
      vertex 68.5 31.7 2
      vertex 68.4932 31.8044 14
      vertex 68.4932 31.8044 2
    endloop
  endfacet
  facet normal -0.997886 -0.0649964 0
    outer loop
      vertex 68.4932 31.8044 14
      vertex 68.5 31.7 2
      vertex 68.5 31.7 14
    endloop
  endfacet
  facet normal -0.946948 -0.321388 0
    outer loop
      vertex 68.4727 31.9071 2
      vertex 68.4391 32.0061 14
      vertex 68.4391 32.0061 2
    endloop
  endfacet
  facet normal -0.946948 -0.321388 0
    outer loop
      vertex 68.4391 32.0061 14
      vertex 68.4727 31.9071 2
      vertex 68.4727 31.9071 14
    endloop
  endfacet
  facet normal -1 0 0
    outer loop
      vertex 68.5 2.8 2
      vertex 68.5 31.7 14
      vertex 68.5 31.7 2
    endloop
  endfacet
  facet normal -1 -0 0
    outer loop
      vertex 68.5 31.7 14
      vertex 68.5 2.8 2
      vertex 68.5 2.8 14
    endloop
  endfacet
  facet normal 0.997861 0.0653646 0
    outer loop
      vertex 2.00684 2.69558 14
      vertex 2 2.8 2
      vertex 2 2.8 14
    endloop
  endfacet
  facet normal 0.997861 0.0653646 0
    outer loop
      vertex 2 2.8 2
      vertex 2.00684 2.69558 14
      vertex 2.00684 2.69558 2
    endloop
  endfacet
  facet normal -0.947036 0.321126 0
    outer loop
      vertex 68.4391 2.49385 2
      vertex 68.4727 2.59294 14
      vertex 68.4727 2.59294 2
    endloop
  endfacet
  facet normal -0.947036 0.321126 0
    outer loop
      vertex 68.4727 2.59294 14
      vertex 68.4391 2.49385 2
      vertex 68.4391 2.49385 14
    endloop
  endfacet
  facet normal -0.980654 -0.195749 0
    outer loop
      vertex 68.4932 31.8044 2
      vertex 68.4727 31.9071 14
      vertex 68.4727 31.9071 2
    endloop
  endfacet
  facet normal -0.980654 -0.195749 0
    outer loop
      vertex 68.4727 31.9071 14
      vertex 68.4932 31.8044 2
      vertex 68.4932 31.8044 14
    endloop
  endfacet
  facet normal -0.442086 0.896973 0
    outer loop
      vertex 68.1 2.10718 2
      vertex 68.0061 2.0609 14
      vertex 68.1 2.10718 14
    endloop
  endfacet
  facet normal -0.442086 0.896973 0
    outer loop
      vertex 68.0061 2.0609 14
      vertex 68.1 2.10718 2
      vertex 68.0061 2.0609 2
    endloop
  endfacet
  facet normal -0.659248 -0.751925 0
    outer loop
      vertex 68.187 32.3347 2
      vertex 68.2657 32.2657 14
      vertex 68.187 32.3347 14
    endloop
  endfacet
  facet normal -0.659248 -0.751925 -0
    outer loop
      vertex 68.2657 32.2657 14
      vertex 68.187 32.3347 2
      vertex 68.2657 32.2657 2
    endloop
  endfacet
  facet normal -0.321388 -0.946948 0
    outer loop
      vertex 67.9071 32.4727 2
      vertex 68.0061 32.4391 14
      vertex 67.9071 32.4727 14
    endloop
  endfacet
  facet normal -0.321388 -0.946948 -0
    outer loop
      vertex 68.0061 32.4391 14
      vertex 67.9071 32.4727 2
      vertex 68.0061 32.4391 2
    endloop
  endfacet
  facet normal 0.980779 0.195124 0
    outer loop
      vertex 2.02726 2.59294 14
      vertex 2.00684 2.69558 2
      vertex 2.00684 2.69558 14
    endloop
  endfacet
  facet normal 0.980779 0.195124 0
    outer loop
      vertex 2.00684 2.69558 2
      vertex 2.02726 2.59294 14
      vertex 2.02726 2.59294 2
    endloop
  endfacet
  facet normal 0.0653646 0.997861 -0
    outer loop
      vertex 2.8 2 2
      vertex 2.69558 2.00684 14
      vertex 2.8 2 14
    endloop
  endfacet
  facet normal 0.0653646 0.997861 0
    outer loop
      vertex 2.69558 2.00684 14
      vertex 2.8 2 2
      vertex 2.69558 2.00684 2
    endloop
  endfacet
  facet normal 0.442276 0.896879 -0
    outer loop
      vertex 2.49385 2.0609 2
      vertex 2.4 2.10718 14
      vertex 2.49385 2.0609 14
    endloop
  endfacet
  facet normal 0.442276 0.896879 0
    outer loop
      vertex 2.4 2.10718 14
      vertex 2.49385 2.0609 2
      vertex 2.4 2.10718 2
    endloop
  endfacet
  facet normal -0.896803 0.442429 0
    outer loop
      vertex 68.3928 2.4 2
      vertex 68.4391 2.49385 14
      vertex 68.4391 2.49385 2
    endloop
  endfacet
  facet normal -0.896803 0.442429 0
    outer loop
      vertex 68.4391 2.49385 14
      vertex 68.3928 2.4 2
      vertex 68.3928 2.4 14
    endloop
  endfacet
  facet normal -0.896897 -0.44224 0
    outer loop
      vertex 68.4391 32.0061 2
      vertex 68.3928 32.1 14
      vertex 68.3928 32.1 2
    endloop
  endfacet
  facet normal -0.896897 -0.44224 0
    outer loop
      vertex 68.3928 32.1 14
      vertex 68.4391 32.0061 2
      vertex 68.4391 32.0061 14
    endloop
  endfacet
  facet normal -0.751842 0.659343 0
    outer loop
      vertex 68.2657 2.23431 2
      vertex 68.3347 2.31299 14
      vertex 68.3347 2.31299 2
    endloop
  endfacet
  facet normal -0.751842 0.659343 0
    outer loop
      vertex 68.3347 2.31299 14
      vertex 68.2657 2.23431 2
      vertex 68.2657 2.23431 14
    endloop
  endfacet
  facet normal 0 1 -0
    outer loop
      vertex 46.445 2 10.5
      vertex 24.055 2 11.9
      vertex 46.445 2 11.9
    endloop
  endfacet
  facet normal 0 1 0
    outer loop
      vertex 24.055 2 11.9
      vertex 46.445 2 10.5
      vertex 24.055 2 10.5
    endloop
  endfacet
  facet normal 0 1 0
    outer loop
      vertex 46.445 2 11.9
      vertex 67.7 2 14
      vertex 50.845 2 11.9
    endloop
  endfacet
  facet normal 0 1 0
    outer loop
      vertex 67.7 2 14
      vertex 50.845 2 10.5
      vertex 50.845 2 11.9
    endloop
  endfacet
  facet normal 0 1 0
    outer loop
      vertex 67.7 2 2
      vertex 46.445 2 10.5
      vertex 50.845 2 10.5
    endloop
  endfacet
  facet normal 0 1 0
    outer loop
      vertex 46.445 2 10.5
      vertex 67.7 2 2
      vertex 24.055 2 10.5
    endloop
  endfacet
  facet normal 0 1 0
    outer loop
      vertex 2.8 2 2
      vertex 24.055 2 10.5
      vertex 67.7 2 2
    endloop
  endfacet
  facet normal 0 1 -0
    outer loop
      vertex 67.7 2 2
      vertex 50.845 2 10.5
      vertex 67.7 2 14
    endloop
  endfacet
  facet normal 0 1 0
    outer loop
      vertex 67.7 2 14
      vertex 46.445 2 11.9
      vertex 2.8 2 14
    endloop
  endfacet
  facet normal 0 1 -0
    outer loop
      vertex 24.055 2 11.9
      vertex 2.8 2 14
      vertex 46.445 2 11.9
    endloop
  endfacet
  facet normal 0 1 -0
    outer loop
      vertex 19.655 2 11.9
      vertex 2.8 2 14
      vertex 24.055 2 11.9
    endloop
  endfacet
  facet normal 0 1 -0
    outer loop
      vertex 19.655 2 10.5
      vertex 2.8 2 14
      vertex 19.655 2 11.9
    endloop
  endfacet
  facet normal 0 1 0
    outer loop
      vertex 19.655 2 10.5
      vertex 2.8 2 2
      vertex 2.8 2 14
    endloop
  endfacet
  facet normal 0 1 0
    outer loop
      vertex 24.055 2 10.5
      vertex 2.8 2 2
      vertex 19.655 2 10.5
    endloop
  endfacet
  facet normal -0.831638 0.555318 0
    outer loop
      vertex 68.3347 2.31299 2
      vertex 68.3928 2.4 14
      vertex 68.3928 2.4 2
    endloop
  endfacet
  facet normal -0.831638 0.555318 0
    outer loop
      vertex 68.3928 2.4 14
      vertex 68.3347 2.31299 2
      vertex 68.3347 2.31299 14
    endloop
  endfacet
  facet normal -0.0653771 0.997861 0
    outer loop
      vertex 67.8044 2.00684 2
      vertex 67.7 2 14
      vertex 67.8044 2.00684 14
    endloop
  endfacet
  facet normal -0.0653771 0.997861 0
    outer loop
      vertex 67.7 2 14
      vertex 67.8044 2.00684 2
      vertex 67.7 2 2
    endloop
  endfacet
  facet normal -0.195014 0.9808 0
    outer loop
      vertex 67.9071 2.02726 2
      vertex 67.8044 2.00684 14
      vertex 67.9071 2.02726 14
    endloop
  endfacet
  facet normal -0.195014 0.9808 0
    outer loop
      vertex 67.8044 2.00684 14
      vertex 67.9071 2.02726 2
      vertex 67.8044 2.00684 2
    endloop
  endfacet
  facet normal 0.555582 0.831462 -0
    outer loop
      vertex 2.4 2.10718 2
      vertex 2.31299 2.16532 14
      vertex 2.4 2.10718 14
    endloop
  endfacet
  facet normal 0.555582 0.831462 0
    outer loop
      vertex 2.31299 2.16532 14
      vertex 2.4 2.10718 2
      vertex 2.31299 2.16532 2
    endloop
  endfacet
  facet normal 0.064984 -0.997886 0
    outer loop
      vertex 2.69558 32.4932 2
      vertex 2.8 32.5 14
      vertex 2.69558 32.4932 14
    endloop
  endfacet
  facet normal 0.064984 -0.997886 0
    outer loop
      vertex 2.8 32.5 14
      vertex 2.69558 32.4932 2
      vertex 2.8 32.5 2
    endloop
  endfacet
  facet normal 0.659343 -0.751842 0
    outer loop
      vertex 2.23431 32.2657 2
      vertex 2.31299 32.3347 14
      vertex 2.23431 32.2657 14
    endloop
  endfacet
  facet normal 0.659343 -0.751842 0
    outer loop
      vertex 2.31299 32.3347 14
      vertex 2.23431 32.2657 2
      vertex 2.31299 32.3347 2
    endloop
  endfacet
  facet normal 1 0 0
    outer loop
      vertex 2 31.7 14
      vertex 2 30.05 11.3
      vertex 2 31.7 2
    endloop
  endfacet
  facet normal 1 0 0
    outer loop
      vertex 2 31.7 14
      vertex 2 4.45 11.3
      vertex 2 30.05 11.3
    endloop
  endfacet
  facet normal 1 0 0
    outer loop
      vertex 2 2.8 2
      vertex 2 4.45 11.3
      vertex 2 2.8 14
    endloop
  endfacet
  facet normal 1 -0 0
    outer loop
      vertex 2 2.8 14
      vertex 2 4.45 11.3
      vertex 2 31.7 14
    endloop
  endfacet
  facet normal 1 -0 0
    outer loop
      vertex 2 30.05 3.8
      vertex 2 31.7 2
      vertex 2 30.05 11.3
    endloop
  endfacet
  facet normal 1 -0 0
    outer loop
      vertex 2 4.45 3.8
      vertex 2 31.7 2
      vertex 2 30.05 3.8
    endloop
  endfacet
  facet normal 1 0 0
    outer loop
      vertex 2 4.45 3.8
      vertex 2 2.8 2
      vertex 2 31.7 2
    endloop
  endfacet
  facet normal 1 0 0
    outer loop
      vertex 2 4.45 11.3
      vertex 2 2.8 2
      vertex 2 4.45 3.8
    endloop
  endfacet
  facet normal 0 0 1
    outer loop
      vertex 67.7 32.5 2
      vertex 68.5 31.7 2
      vertex 68.4932 31.8044 2
    endloop
  endfacet
  facet normal 0 0 1
    outer loop
      vertex 68.5 31.7 2
      vertex 67.7 32.5 2
      vertex 68.5 2.8 2
    endloop
  endfacet
  facet normal 0 0 1
    outer loop
      vertex 67.7 32.5 2
      vertex 68.4932 31.8044 2
      vertex 68.4727 31.9071 2
    endloop
  endfacet
  facet normal 0 0 1
    outer loop
      vertex 67.7 2 2
      vertex 68.5 2.8 2
      vertex 67.7 32.5 2
    endloop
  endfacet
  facet normal 0 0 1
    outer loop
      vertex 67.7 32.5 2
      vertex 68.4727 31.9071 2
      vertex 68.4391 32.0061 2
    endloop
  endfacet
  facet normal 0 0 1
    outer loop
      vertex 68.5 2.8 2
      vertex 67.7 2 2
      vertex 68.4932 2.69558 2
    endloop
  endfacet
  facet normal 0 0 1
    outer loop
      vertex 67.7 32.5 2
      vertex 68.4391 32.0061 2
      vertex 68.3928 32.1 2
    endloop
  endfacet
  facet normal 0 0 1
    outer loop
      vertex 68.4932 2.69558 2
      vertex 67.7 2 2
      vertex 68.4727 2.59294 2
    endloop
  endfacet
  facet normal 0 0 1
    outer loop
      vertex 67.7 32.5 2
      vertex 68.3928 32.1 2
      vertex 68.3347 32.187 2
    endloop
  endfacet
  facet normal 0 0 1
    outer loop
      vertex 68.4727 2.59294 2
      vertex 67.7 2 2
      vertex 68.4391 2.49385 2
    endloop
  endfacet
  facet normal 0 0 1
    outer loop
      vertex 67.7 32.5 2
      vertex 68.3347 32.187 2
      vertex 68.2657 32.2657 2
    endloop
  endfacet
  facet normal 0 0 1
    outer loop
      vertex 68.4391 2.49385 2
      vertex 67.7 2 2
      vertex 68.3928 2.4 2
    endloop
  endfacet
  facet normal 0 0 1
    outer loop
      vertex 67.7 32.5 2
      vertex 68.2657 32.2657 2
      vertex 68.187 32.3347 2
    endloop
  endfacet
  facet normal 0 0 1
    outer loop
      vertex 68.3928 2.4 2
      vertex 67.7 2 2
      vertex 68.3347 2.31299 2
    endloop
  endfacet
  facet normal 0 0 1
    outer loop
      vertex 67.7 32.5 2
      vertex 68.187 32.3347 2
      vertex 68.1 32.3928 2
    endloop
  endfacet
  facet normal 0 0 1
    outer loop
      vertex 68.3347 2.31299 2
      vertex 67.7 2 2
      vertex 68.2657 2.23431 2
    endloop
  endfacet
  facet normal 0 0 1
    outer loop
      vertex 67.7 32.5 2
      vertex 68.1 32.3928 2
      vertex 68.0061 32.4391 2
    endloop
  endfacet
  facet normal 0 0 1
    outer loop
      vertex 68.2657 2.23431 2
      vertex 67.7 2 2
      vertex 68.187 2.16532 2
    endloop
  endfacet
  facet normal 0 0 1
    outer loop
      vertex 67.7 32.5 2
      vertex 68.0061 32.4391 2
      vertex 67.9071 32.4727 2
    endloop
  endfacet
  facet normal 0 0 1
    outer loop
      vertex 68.187 2.16532 2
      vertex 67.7 2 2
      vertex 68.1 2.10718 2
    endloop
  endfacet
  facet normal 0 0 1
    outer loop
      vertex 67.7 32.5 2
      vertex 67.9071 32.4727 2
      vertex 67.8044 32.4932 2
    endloop
  endfacet
  facet normal 0 0 1
    outer loop
      vertex 68.1 2.10718 2
      vertex 67.7 2 2
      vertex 68.0061 2.0609 2
    endloop
  endfacet
  facet normal 0 0 1
    outer loop
      vertex 68.0061 2.0609 2
      vertex 67.7 2 2
      vertex 67.9071 2.02726 2
    endloop
  endfacet
  facet normal 0 0 1
    outer loop
      vertex 67.9071 2.02726 2
      vertex 67.7 2 2
      vertex 67.8044 2.00684 2
    endloop
  endfacet
  facet normal -0 0 1
    outer loop
      vertex 2.8 32.5 2
      vertex 67.7 2 2
      vertex 67.7 32.5 2
    endloop
  endfacet
  facet normal 0 0 1
    outer loop
      vertex 2.8 32.5 2
      vertex 2.8 2 2
      vertex 67.7 2 2
    endloop
  endfacet
  facet normal 0 0 1
    outer loop
      vertex 2 31.7 2
      vertex 2.8 32.5 2
      vertex 2.69558 32.4932 2
    endloop
  endfacet
  facet normal 0 0 1
    outer loop
      vertex 2.8 32.5 2
      vertex 2 31.7 2
      vertex 2.8 2 2
    endloop
  endfacet
  facet normal 0 0 1
    outer loop
      vertex 2 31.7 2
      vertex 2.69558 32.4932 2
      vertex 2.59294 32.4727 2
    endloop
  endfacet
  facet normal -0 0 1
    outer loop
      vertex 2 2.8 2
      vertex 2.8 2 2
      vertex 2 31.7 2
    endloop
  endfacet
  facet normal 0 0 1
    outer loop
      vertex 2 31.7 2
      vertex 2.59294 32.4727 2
      vertex 2.49385 32.4391 2
    endloop
  endfacet
  facet normal 0 0 1
    outer loop
      vertex 2.8 2 2
      vertex 2 2.8 2
      vertex 2.69558 2.00684 2
    endloop
  endfacet
  facet normal 0 0 1
    outer loop
      vertex 2 31.7 2
      vertex 2.49385 32.4391 2
      vertex 2.4 32.3928 2
    endloop
  endfacet
  facet normal 0 0 1
    outer loop
      vertex 2.69558 2.00684 2
      vertex 2 2.8 2
      vertex 2.59294 2.02726 2
    endloop
  endfacet
  facet normal 0 0 1
    outer loop
      vertex 2 31.7 2
      vertex 2.4 32.3928 2
      vertex 2.31299 32.3347 2
    endloop
  endfacet
  facet normal 0 0 1
    outer loop
      vertex 2.59294 2.02726 2
      vertex 2 2.8 2
      vertex 2.49385 2.0609 2
    endloop
  endfacet
  facet normal 0 0 1
    outer loop
      vertex 2 31.7 2
      vertex 2.31299 32.3347 2
      vertex 2.23431 32.2657 2
    endloop
  endfacet
  facet normal 0 0 1
    outer loop
      vertex 2.49385 2.0609 2
      vertex 2 2.8 2
      vertex 2.4 2.10718 2
    endloop
  endfacet
  facet normal 0 0 1
    outer loop
      vertex 2 31.7 2
      vertex 2.23431 32.2657 2
      vertex 2.16532 32.187 2
    endloop
  endfacet
  facet normal 0 0 1
    outer loop
      vertex 2.4 2.10718 2
      vertex 2 2.8 2
      vertex 2.31299 2.16532 2
    endloop
  endfacet
  facet normal 0 0 1
    outer loop
      vertex 2 31.7 2
      vertex 2.16532 32.187 2
      vertex 2.10718 32.1 2
    endloop
  endfacet
  facet normal 0 0 1
    outer loop
      vertex 2.31299 2.16532 2
      vertex 2 2.8 2
      vertex 2.23431 2.23431 2
    endloop
  endfacet
  facet normal 0 0 1
    outer loop
      vertex 2 31.7 2
      vertex 2.10718 32.1 2
      vertex 2.0609 32.0061 2
    endloop
  endfacet
  facet normal 0 0 1
    outer loop
      vertex 2.23431 2.23431 2
      vertex 2 2.8 2
      vertex 2.16532 2.31299 2
    endloop
  endfacet
  facet normal 0 0 1
    outer loop
      vertex 2 31.7 2
      vertex 2.0609 32.0061 2
      vertex 2.02726 31.9071 2
    endloop
  endfacet
  facet normal 0 0 1
    outer loop
      vertex 2.16532 2.31299 2
      vertex 2 2.8 2
      vertex 2.10718 2.4 2
    endloop
  endfacet
  facet normal 0 0 1
    outer loop
      vertex 2 31.7 2
      vertex 2.02726 31.9071 2
      vertex 2.00684 31.8044 2
    endloop
  endfacet
  facet normal 0 0 1
    outer loop
      vertex 2.10718 2.4 2
      vertex 2 2.8 2
      vertex 2.0609 2.49385 2
    endloop
  endfacet
  facet normal 0 0 1
    outer loop
      vertex 2.0609 2.49385 2
      vertex 2 2.8 2
      vertex 2.02726 2.59294 2
    endloop
  endfacet
  facet normal 0 0 1
    outer loop
      vertex 2.02726 2.59294 2
      vertex 2 2.8 2
      vertex 2.00684 2.69558 2
    endloop
  endfacet
  facet normal -0.751925 -0.659248 0
    outer loop
      vertex 68.3347 32.187 2
      vertex 68.2657 32.2657 14
      vertex 68.2657 32.2657 2
    endloop
  endfacet
  facet normal -0.751925 -0.659248 0
    outer loop
      vertex 68.2657 32.2657 14
      vertex 68.3347 32.187 2
      vertex 68.3347 32.187 14
    endloop
  endfacet
  facet normal -0.321731 0.946831 0
    outer loop
      vertex 68.0061 2.0609 2
      vertex 67.9071 2.02726 14
      vertex 68.0061 2.0609 14
    endloop
  endfacet
  facet normal -0.321731 0.946831 0
    outer loop
      vertex 67.9071 2.02726 14
      vertex 68.0061 2.0609 2
      vertex 67.9071 2.02726 2
    endloop
  endfacet
  facet normal 0.321469 0.94692 -0
    outer loop
      vertex 2.59294 2.02726 2
      vertex 2.49385 2.0609 14
      vertex 2.59294 2.02726 14
    endloop
  endfacet
  facet normal 0.321469 0.94692 0
    outer loop
      vertex 2.49385 2.0609 14
      vertex 2.59294 2.02726 2
      vertex 2.49385 2.0609 2
    endloop
  endfacet
  facet normal 0.321126 -0.947036 0
    outer loop
      vertex 2.49385 32.4391 2
      vertex 2.59294 32.4727 14
      vertex 2.49385 32.4391 14
    endloop
  endfacet
  facet normal 0.321126 -0.947036 0
    outer loop
      vertex 2.59294 32.4727 14
      vertex 2.49385 32.4391 2
      vertex 2.59294 32.4727 2
    endloop
  endfacet
  facet normal -0.997886 0.064984 0
    outer loop
      vertex 68.4932 2.69558 2
      vertex 68.5 2.8 14
      vertex 68.5 2.8 2
    endloop
  endfacet
  facet normal -0.997886 0.064984 0
    outer loop
      vertex 68.5 2.8 14
      vertex 68.4932 2.69558 2
      vertex 68.4932 2.69558 14
    endloop
  endfacet
  facet normal -0.0649964 -0.997886 0
    outer loop
      vertex 67.7 32.5 2
      vertex 67.8044 32.4932 14
      vertex 67.7 32.5 14
    endloop
  endfacet
  facet normal -0.0649964 -0.997886 -0
    outer loop
      vertex 67.8044 32.4932 14
      vertex 67.7 32.5 2
      vertex 67.8044 32.4932 2
    endloop
  endfacet
  facet normal 0.75189 0.659289 0
    outer loop
      vertex 2.23431 2.23431 14
      vertex 2.16532 2.31299 2
      vertex 2.16532 2.31299 14
    endloop
  endfacet
  facet normal 0.75189 0.659289 0
    outer loop
      vertex 2.16532 2.31299 2
      vertex 2.23431 2.23431 14
      vertex 2.23431 2.23431 2
    endloop
  endfacet
  facet normal 0.195124 0.980779 -0
    outer loop
      vertex 2.69558 2.00684 2
      vertex 2.59294 2.02726 14
      vertex 2.69558 2.00684 14
    endloop
  endfacet
  facet normal 0.195124 0.980779 0
    outer loop
      vertex 2.59294 2.02726 14
      vertex 2.69558 2.00684 2
      vertex 2.59294 2.02726 2
    endloop
  endfacet
  facet normal -0.555626 0.831432 0
    outer loop
      vertex 68.187 2.16532 2
      vertex 68.1 2.10718 14
      vertex 68.187 2.16532 14
    endloop
  endfacet
  facet normal -0.555626 0.831432 0
    outer loop
      vertex 68.1 2.10718 14
      vertex 68.187 2.16532 2
      vertex 68.1 2.10718 2
    endloop
  endfacet
  facet normal -0.980632 0.195859 0
    outer loop
      vertex 68.4727 2.59294 2
      vertex 68.4932 2.69558 14
      vertex 68.4932 2.69558 2
    endloop
  endfacet
  facet normal -0.980632 0.195859 0
    outer loop
      vertex 68.4932 2.69558 14
      vertex 68.4727 2.59294 2
      vertex 68.4727 2.59294 14
    endloop
  endfacet
  facet normal -0.555362 -0.831609 0
    outer loop
      vertex 68.1 32.3928 2
      vertex 68.187 32.3347 14
      vertex 68.1 32.3928 14
    endloop
  endfacet
  facet normal -0.555362 -0.831609 -0
    outer loop
      vertex 68.187 32.3347 14
      vertex 68.1 32.3928 2
      vertex 68.187 32.3347 2
    endloop
  endfacet
  facet normal 0.831462 0.555582 0
    outer loop
      vertex 2.16532 2.31299 14
      vertex 2.10718 2.4 2
      vertex 2.10718 2.4 14
    endloop
  endfacet
  facet normal 0.831462 0.555582 0
    outer loop
      vertex 2.10718 2.4 2
      vertex 2.16532 2.31299 14
      vertex 2.16532 2.31299 2
    endloop
  endfacet
  facet normal 0.896973 -0.442086 0
    outer loop
      vertex 2.0609 32.0061 14
      vertex 2.10718 32.1 2
      vertex 2.10718 32.1 14
    endloop
  endfacet
  facet normal 0.896973 -0.442086 0
    outer loop
      vertex 2.10718 32.1 2
      vertex 2.0609 32.0061 14
      vertex 2.0609 32.0061 2
    endloop
  endfacet
  facet normal -0.195749 -0.980654 0
    outer loop
      vertex 67.8044 32.4932 2
      vertex 67.9071 32.4727 14
      vertex 67.8044 32.4932 14
    endloop
  endfacet
  facet normal -0.195749 -0.980654 -0
    outer loop
      vertex 67.9071 32.4727 14
      vertex 67.8044 32.4932 2
      vertex 67.9071 32.4727 2
    endloop
  endfacet
  facet normal 0.195859 -0.980632 0
    outer loop
      vertex 2.59294 32.4727 2
      vertex 2.69558 32.4932 14
      vertex 2.59294 32.4727 14
    endloop
  endfacet
  facet normal 0.195859 -0.980632 0
    outer loop
      vertex 2.69558 32.4932 14
      vertex 2.59294 32.4727 2
      vertex 2.69558 32.4932 2
    endloop
  endfacet
  facet normal 0.94692 0.321469 0
    outer loop
      vertex 2.0609 2.49385 14
      vertex 2.02726 2.59294 2
      vertex 2.02726 2.59294 14
    endloop
  endfacet
  facet normal 0.94692 0.321469 0
    outer loop
      vertex 2.02726 2.59294 2
      vertex 2.0609 2.49385 14
      vertex 2.0609 2.49385 2
    endloop
  endfacet
  facet normal 0.751973 -0.659194 0
    outer loop
      vertex 2.16532 32.187 14
      vertex 2.23431 32.2657 2
      vertex 2.23431 32.2657 14
    endloop
  endfacet
  facet normal 0.751973 -0.659194 0
    outer loop
      vertex 2.23431 32.2657 2
      vertex 2.16532 32.187 14
      vertex 2.16532 32.187 2
    endloop
  endfacet
  facet normal 0.831432 -0.555626 0
    outer loop
      vertex 2.10718 32.1 14
      vertex 2.16532 32.187 2
      vertex 2.16532 32.187 14
    endloop
  endfacet
  facet normal 0.831432 -0.555626 0
    outer loop
      vertex 2.16532 32.187 2
      vertex 2.10718 32.1 14
      vertex 2.10718 32.1 2
    endloop
  endfacet
  facet normal -0.44224 -0.896897 0
    outer loop
      vertex 68.0061 32.4391 2
      vertex 68.1 32.3928 14
      vertex 68.0061 32.4391 14
    endloop
  endfacet
  facet normal -0.44224 -0.896897 -0
    outer loop
      vertex 68.1 32.3928 14
      vertex 68.0061 32.4391 2
      vertex 68.1 32.3928 2
    endloop
  endfacet
  facet normal 0.896879 0.442276 0
    outer loop
      vertex 2.10718 2.4 14
      vertex 2.0609 2.49385 2
      vertex 2.0609 2.49385 14
    endloop
  endfacet
  facet normal 0.896879 0.442276 0
    outer loop
      vertex 2.0609 2.49385 2
      vertex 2.10718 2.4 14
      vertex 2.10718 2.4 2
    endloop
  endfacet
  facet normal 0.997861 -0.0653771 0
    outer loop
      vertex 2 31.7 14
      vertex 2.00684 31.8044 2
      vertex 2.00684 31.8044 14
    endloop
  endfacet
  facet normal 0.997861 -0.0653771 0
    outer loop
      vertex 2.00684 31.8044 2
      vertex 2 31.7 14
      vertex 2 31.7 2
    endloop
  endfacet
  facet normal 0.9808 -0.195014 0
    outer loop
      vertex 2.00684 31.8044 14
      vertex 2.02726 31.9071 2
      vertex 2.02726 31.9071 14
    endloop
  endfacet
  facet normal 0.9808 -0.195014 0
    outer loop
      vertex 2.02726 31.9071 2
      vertex 2.00684 31.8044 14
      vertex 2.00684 31.8044 2
    endloop
  endfacet
  facet normal 0.946831 -0.321731 0
    outer loop
      vertex 2.02726 31.9071 14
      vertex 2.0609 32.0061 2
      vertex 2.0609 32.0061 14
    endloop
  endfacet
  facet normal 0.946831 -0.321731 0
    outer loop
      vertex 2.0609 32.0061 2
      vertex 2.02726 31.9071 14
      vertex 2.02726 31.9071 2
    endloop
  endfacet
  facet normal 0.442429 -0.896803 0
    outer loop
      vertex 2.4 32.3928 2
      vertex 2.49385 32.4391 14
      vertex 2.4 32.3928 14
    endloop
  endfacet
  facet normal 0.442429 -0.896803 0
    outer loop
      vertex 2.49385 32.4391 14
      vertex 2.4 32.3928 2
      vertex 2.49385 32.4391 2
    endloop
  endfacet
  facet normal 0.555318 -0.831638 0
    outer loop
      vertex 2.31299 32.3347 2
      vertex 2.4 32.3928 14
      vertex 2.31299 32.3347 14
    endloop
  endfacet
  facet normal 0.555318 -0.831638 0
    outer loop
      vertex 2.4 32.3928 14
      vertex 2.31299 32.3347 2
      vertex 2.4 32.3928 2
    endloop
  endfacet
  facet normal 0.659289 0.75189 -0
    outer loop
      vertex 2.31299 2.16532 2
      vertex 2.23431 2.23431 14
      vertex 2.31299 2.16532 14
    endloop
  endfacet
  facet normal 0.659289 0.75189 0
    outer loop
      vertex 2.23431 2.23431 14
      vertex 2.31299 2.16532 2
      vertex 2.23431 2.23431 2
    endloop
  endfacet
  facet normal 0 0 -1
    outer loop
      vertex 0 4.45 11.3
      vertex 2 30.05 11.3
      vertex 2 4.45 11.3
    endloop
  endfacet
  facet normal -0 0 -1
    outer loop
      vertex 2 30.05 11.3
      vertex 0 4.45 11.3
      vertex 0 30.05 11.3
    endloop
  endfacet
  facet normal -0 0 1
    outer loop
      vertex 0 30.05 3.8
      vertex 2 4.45 3.8
      vertex 2 30.05 3.8
    endloop
  endfacet
  facet normal 0 0 1
    outer loop
      vertex 2 4.45 3.8
      vertex 0 30.05 3.8
      vertex 0 4.45 3.8
    endloop
  endfacet
  facet normal 0 -1 0
    outer loop
      vertex 0 30.05 3.8
      vertex 2 30.05 11.3
      vertex 0 30.05 11.3
    endloop
  endfacet
  facet normal 0 -1 -0
    outer loop
      vertex 2 30.05 11.3
      vertex 0 30.05 3.8
      vertex 2 30.05 3.8
    endloop
  endfacet
  facet normal 0 1 -0
    outer loop
      vertex 2 4.45 3.8
      vertex 0 4.45 11.3
      vertex 2 4.45 11.3
    endloop
  endfacet
  facet normal 0 1 0
    outer loop
      vertex 0 4.45 11.3
      vertex 2 4.45 3.8
      vertex 0 4.45 3.8
    endloop
  endfacet
  facet normal 1 -0 0
    outer loop
      vertex 11.4 3.8 6.8
      vertex 11.4 5 5.6
      vertex 11.4 5 6.8
    endloop
  endfacet
  facet normal 1 0 0
    outer loop
      vertex 11.4 5 5.6
      vertex 11.4 3.8 6.8
      vertex 11.4 3.8 5.6
    endloop
  endfacet
  facet normal -0 0 1
    outer loop
      vertex 9 5 6.8
      vertex 11.4 3.8 6.8
      vertex 11.4 5 6.8
    endloop
  endfacet
  facet normal 0 0 1
    outer loop
      vertex 11.4 3.8 6.8
      vertex 9 5 6.8
      vertex 9 3.8 6.8
    endloop
  endfacet
  facet normal 0 0 -1
    outer loop
      vertex 9 3.8 5.6
      vertex 11.4 5 5.6
      vertex 11.4 3.8 5.6
    endloop
  endfacet
  facet normal -0 0 -1
    outer loop
      vertex 11.4 5 5.6
      vertex 9 3.8 5.6
      vertex 9 5 5.6
    endloop
  endfacet
  facet normal -1 0 0
    outer loop
      vertex 9 3.8 5.6
      vertex 9 5 6.8
      vertex 9 5 5.6
    endloop
  endfacet
  facet normal -1 -0 0
    outer loop
      vertex 9 5 6.8
      vertex 9 3.8 5.6
      vertex 9 3.8 6.8
    endloop
  endfacet
  facet normal 0 1 -0
    outer loop
      vertex 11.4 5 5.6
      vertex 9 5 6.8
      vertex 11.4 5 6.8
    endloop
  endfacet
  facet normal 0 1 0
    outer loop
      vertex 9 5 6.8
      vertex 11.4 5 5.6
      vertex 9 5 5.6
    endloop
  endfacet
  facet normal 0 -1 0
    outer loop
      vertex 9 3.8 5.6
      vertex 11.4 3.8 6.8
      vertex 9 3.8 6.8
    endloop
  endfacet
  facet normal 0 -1 -0
    outer loop
      vertex 11.4 3.8 6.8
      vertex 9 3.8 5.6
      vertex 11.4 3.8 5.6
    endloop
  endfacet
  facet normal 1 -0 0
    outer loop
      vertex 11.4 29.5 6.8
      vertex 11.4 30.7 5.6
      vertex 11.4 30.7 6.8
    endloop
  endfacet
  facet normal 1 0 0
    outer loop
      vertex 11.4 30.7 5.6
      vertex 11.4 29.5 6.8
      vertex 11.4 29.5 5.6
    endloop
  endfacet
  facet normal -0 0 1
    outer loop
      vertex 9 30.7 6.8
      vertex 11.4 29.5 6.8
      vertex 11.4 30.7 6.8
    endloop
  endfacet
  facet normal 0 0 1
    outer loop
      vertex 11.4 29.5 6.8
      vertex 9 30.7 6.8
      vertex 9 29.5 6.8
    endloop
  endfacet
  facet normal 0 0 -1
    outer loop
      vertex 9 29.5 5.6
      vertex 11.4 30.7 5.6
      vertex 11.4 29.5 5.6
    endloop
  endfacet
  facet normal -0 0 -1
    outer loop
      vertex 11.4 30.7 5.6
      vertex 9 29.5 5.6
      vertex 9 30.7 5.6
    endloop
  endfacet
  facet normal -1 0 0
    outer loop
      vertex 9 29.5 5.6
      vertex 9 30.7 6.8
      vertex 9 30.7 5.6
    endloop
  endfacet
  facet normal -1 -0 0
    outer loop
      vertex 9 30.7 6.8
      vertex 9 29.5 5.6
      vertex 9 29.5 6.8
    endloop
  endfacet
  facet normal 0 1 -0
    outer loop
      vertex 11.4 30.7 5.6
      vertex 9 30.7 6.8
      vertex 11.4 30.7 6.8
    endloop
  endfacet
  facet normal 0 1 0
    outer loop
      vertex 9 30.7 6.8
      vertex 11.4 30.7 5.6
      vertex 9 30.7 5.6
    endloop
  endfacet
  facet normal 0 -1 0
    outer loop
      vertex 9 29.5 5.6
      vertex 11.4 29.5 6.8
      vertex 9 29.5 6.8
    endloop
  endfacet
  facet normal 0 -1 -0
    outer loop
      vertex 11.4 29.5 6.8
      vertex 9 29.5 5.6
      vertex 11.4 29.5 5.6
    endloop
  endfacet
  facet normal 1 -0 0
    outer loop
      vertex 61.9 3.8 6.8
      vertex 61.9 5 5.6
      vertex 61.9 5 6.8
    endloop
  endfacet
  facet normal 1 0 0
    outer loop
      vertex 61.9 5 5.6
      vertex 61.9 3.8 6.8
      vertex 61.9 3.8 5.6
    endloop
  endfacet
  facet normal -0 0 1
    outer loop
      vertex 59.5 5 6.8
      vertex 61.9 3.8 6.8
      vertex 61.9 5 6.8
    endloop
  endfacet
  facet normal 0 0 1
    outer loop
      vertex 61.9 3.8 6.8
      vertex 59.5 5 6.8
      vertex 59.5 3.8 6.8
    endloop
  endfacet
  facet normal 0 0 -1
    outer loop
      vertex 59.5 3.8 5.6
      vertex 61.9 5 5.6
      vertex 61.9 3.8 5.6
    endloop
  endfacet
  facet normal -0 0 -1
    outer loop
      vertex 61.9 5 5.6
      vertex 59.5 3.8 5.6
      vertex 59.5 5 5.6
    endloop
  endfacet
  facet normal -1 0 0
    outer loop
      vertex 59.5 3.8 5.6
      vertex 59.5 5 6.8
      vertex 59.5 5 5.6
    endloop
  endfacet
  facet normal -1 -0 0
    outer loop
      vertex 59.5 5 6.8
      vertex 59.5 3.8 5.6
      vertex 59.5 3.8 6.8
    endloop
  endfacet
  facet normal 0 1 -0
    outer loop
      vertex 61.9 5 5.6
      vertex 59.5 5 6.8
      vertex 61.9 5 6.8
    endloop
  endfacet
  facet normal 0 1 0
    outer loop
      vertex 59.5 5 6.8
      vertex 61.9 5 5.6
      vertex 59.5 5 5.6
    endloop
  endfacet
  facet normal 0 -1 0
    outer loop
      vertex 59.5 3.8 5.6
      vertex 61.9 3.8 6.8
      vertex 59.5 3.8 6.8
    endloop
  endfacet
  facet normal 0 -1 -0
    outer loop
      vertex 61.9 3.8 6.8
      vertex 59.5 3.8 5.6
      vertex 61.9 3.8 5.6
    endloop
  endfacet
  facet normal 1 -0 0
    outer loop
      vertex 61.9 29.5 6.8
      vertex 61.9 30.7 5.6
      vertex 61.9 30.7 6.8
    endloop
  endfacet
  facet normal 1 0 0
    outer loop
      vertex 61.9 30.7 5.6
      vertex 61.9 29.5 6.8
      vertex 61.9 29.5 5.6
    endloop
  endfacet
  facet normal -0 0 1
    outer loop
      vertex 59.5 30.7 6.8
      vertex 61.9 29.5 6.8
      vertex 61.9 30.7 6.8
    endloop
  endfacet
  facet normal 0 0 1
    outer loop
      vertex 61.9 29.5 6.8
      vertex 59.5 30.7 6.8
      vertex 59.5 29.5 6.8
    endloop
  endfacet
  facet normal 0 0 -1
    outer loop
      vertex 59.5 29.5 5.6
      vertex 61.9 30.7 5.6
      vertex 61.9 29.5 5.6
    endloop
  endfacet
  facet normal -0 0 -1
    outer loop
      vertex 61.9 30.7 5.6
      vertex 59.5 29.5 5.6
      vertex 59.5 30.7 5.6
    endloop
  endfacet
  facet normal -1 0 0
    outer loop
      vertex 59.5 29.5 5.6
      vertex 59.5 30.7 6.8
      vertex 59.5 30.7 5.6
    endloop
  endfacet
  facet normal -1 -0 0
    outer loop
      vertex 59.5 30.7 6.8
      vertex 59.5 29.5 5.6
      vertex 59.5 29.5 6.8
    endloop
  endfacet
  facet normal 0 1 -0
    outer loop
      vertex 61.9 30.7 5.6
      vertex 59.5 30.7 6.8
      vertex 61.9 30.7 6.8
    endloop
  endfacet
  facet normal 0 1 0
    outer loop
      vertex 59.5 30.7 6.8
      vertex 61.9 30.7 5.6
      vertex 59.5 30.7 5.6
    endloop
  endfacet
  facet normal 0 -1 0
    outer loop
      vertex 59.5 29.5 5.6
      vertex 61.9 29.5 6.8
      vertex 59.5 29.5 6.8
    endloop
  endfacet
  facet normal 0 -1 -0
    outer loop
      vertex 61.9 29.5 6.8
      vertex 59.5 29.5 5.6
      vertex 61.9 29.5 5.6
    endloop
  endfacet
  facet normal 1 -0 0
    outer loop
      vertex 66.5 3.65 4.5
      vertex 66.5 5.85 3
      vertex 66.5 5.85 4.5
    endloop
  endfacet
  facet normal 1 0 0
    outer loop
      vertex 66.5 5.85 3
      vertex 66.5 3.65 4.5
      vertex 66.5 3.65 3
    endloop
  endfacet
  facet normal -0 0 1
    outer loop
      vertex 4 5.85 4.5
      vertex 66.5 3.65 4.5
      vertex 66.5 5.85 4.5
    endloop
  endfacet
  facet normal 0 0 1
    outer loop
      vertex 66.5 3.65 4.5
      vertex 4 5.85 4.5
      vertex 4 3.65 4.5
    endloop
  endfacet
  facet normal 0 0 -1
    outer loop
      vertex 4 3.65 3
      vertex 66.5 5.85 3
      vertex 66.5 3.65 3
    endloop
  endfacet
  facet normal -0 0 -1
    outer loop
      vertex 66.5 5.85 3
      vertex 4 3.65 3
      vertex 4 5.85 3
    endloop
  endfacet
  facet normal -1 0 0
    outer loop
      vertex 4 3.65 3
      vertex 4 5.85 4.5
      vertex 4 5.85 3
    endloop
  endfacet
  facet normal -1 -0 0
    outer loop
      vertex 4 5.85 4.5
      vertex 4 3.65 3
      vertex 4 3.65 4.5
    endloop
  endfacet
  facet normal 0 1 -0
    outer loop
      vertex 66.5 5.85 3
      vertex 4 5.85 4.5
      vertex 66.5 5.85 4.5
    endloop
  endfacet
  facet normal 0 1 0
    outer loop
      vertex 4 5.85 4.5
      vertex 66.5 5.85 3
      vertex 4 5.85 3
    endloop
  endfacet
  facet normal 0 -1 0
    outer loop
      vertex 4 3.65 3
      vertex 66.5 3.65 4.5
      vertex 4 3.65 4.5
    endloop
  endfacet
  facet normal 0 -1 -0
    outer loop
      vertex 66.5 3.65 4.5
      vertex 4 3.65 3
      vertex 66.5 3.65 3
    endloop
  endfacet
  facet normal 1 -0 0
    outer loop
      vertex 66.5 28.65 4.5
      vertex 66.5 30.85 3
      vertex 66.5 30.85 4.5
    endloop
  endfacet
  facet normal 1 0 0
    outer loop
      vertex 66.5 30.85 3
      vertex 66.5 28.65 4.5
      vertex 66.5 28.65 3
    endloop
  endfacet
  facet normal -0 0 1
    outer loop
      vertex 4 30.85 4.5
      vertex 66.5 28.65 4.5
      vertex 66.5 30.85 4.5
    endloop
  endfacet
  facet normal 0 0 1
    outer loop
      vertex 66.5 28.65 4.5
      vertex 4 30.85 4.5
      vertex 4 28.65 4.5
    endloop
  endfacet
  facet normal 0 0 -1
    outer loop
      vertex 4 28.65 3
      vertex 66.5 30.85 3
      vertex 66.5 28.65 3
    endloop
  endfacet
  facet normal -0 0 -1
    outer loop
      vertex 66.5 30.85 3
      vertex 4 28.65 3
      vertex 4 30.85 3
    endloop
  endfacet
  facet normal -1 0 0
    outer loop
      vertex 4 28.65 3
      vertex 4 30.85 4.5
      vertex 4 30.85 3
    endloop
  endfacet
  facet normal -1 -0 0
    outer loop
      vertex 4 30.85 4.5
      vertex 4 28.65 3
      vertex 4 28.65 4.5
    endloop
  endfacet
  facet normal 0 1 -0
    outer loop
      vertex 66.5 30.85 3
      vertex 4 30.85 4.5
      vertex 66.5 30.85 4.5
    endloop
  endfacet
  facet normal 0 1 0
    outer loop
      vertex 4 30.85 4.5
      vertex 66.5 30.85 3
      vertex 4 30.85 3
    endloop
  endfacet
  facet normal 0 -1 0
    outer loop
      vertex 4 28.65 3
      vertex 66.5 28.65 4.5
      vertex 4 28.65 4.5
    endloop
  endfacet
  facet normal 0 -1 -0
    outer loop
      vertex 66.5 28.65 4.5
      vertex 4 28.65 3
      vertex 66.5 28.65 3
    endloop
  endfacet
endsolid OpenSCAD_Model
